<svg width="1440" height="341" viewBox="0 0 1440 341" fill="none" xmlns="http://www.w3.org/2000/svg">
<rect y="18.9985" width="1440" height="322" fill="#3D248A"/>
<path d="M977.565 148.884L968.176 173.358L955.013 155.326L977.565 148.884Z" fill="#00D5FF"/>
<path d="M1077.29 189.56L1067.65 237.64L1037.72 208.511L1077.29 189.56Z" fill="#FFC700"/>
<path d="M702.09 203.185L750.442 211.354L722.242 242.159L702.09 203.185Z" fill="#00D5FF"/>
<path d="M975.132 293.983L948.637 306.093L954.811 278.18L975.132 293.983Z" fill="#E1E1E1"/>
<path d="M1030.05 70.9401L1088.92 100.764L1041.59 135.338L1030.05 70.9401Z" stroke="#E1E1E1" stroke-width="3"/>
<path d="M869.318 234.863L877.497 223.526L881.534 235.322L869.318 234.863Z" fill="#FF5784"/>
<rect x="102" y="95" width="9" height="24" fill="#FF5784"/>
<rect x="290" y="95" width="9" height="24" fill="#00D5FF"/>
<rect x="478" y="95" width="9" height="24" fill="#FFC700"/>
<rect x="1165.61" y="94.6147" width="197" height="74" fill="#3D248A"/>
<path d="M1249.12 133.251L1251.08 122.552H1255.16L1251.54 139.615H1247.27L1244.99 129.888L1242.75 139.615H1238.49L1234.86 122.552H1238.95L1240.91 133.251L1243.25 122.552H1246.74L1249.12 133.251ZM1271.21 131.435C1271.21 133.099 1270.9 134.572 1270.29 135.853C1269.67 137.134 1268.79 138.123 1267.65 138.818C1266.52 139.505 1265.22 139.849 1263.77 139.849C1262.32 139.849 1261.03 139.517 1259.9 138.853C1258.78 138.181 1257.9 137.224 1257.27 135.982C1256.64 134.74 1256.31 133.314 1256.28 131.705V130.744C1256.28 129.072 1256.59 127.599 1257.2 126.326C1257.81 125.044 1258.69 124.056 1259.83 123.361C1260.98 122.666 1262.29 122.318 1263.75 122.318C1265.19 122.318 1266.48 122.662 1267.61 123.349C1268.75 124.037 1269.63 125.017 1270.25 126.291C1270.88 127.556 1271.2 129.009 1271.21 130.65V131.435ZM1267.03 130.72C1267.03 129.025 1266.74 127.74 1266.17 126.865C1265.61 125.982 1264.8 125.541 1263.75 125.541C1261.69 125.541 1260.6 127.087 1260.48 130.181L1260.47 131.435C1260.47 133.107 1260.74 134.392 1261.3 135.291C1261.85 136.189 1262.68 136.638 1263.77 136.638C1264.81 136.638 1265.61 136.197 1266.17 135.314C1266.74 134.431 1267.02 133.162 1267.03 131.505V130.72ZM1286.55 133.251L1288.51 122.552H1292.59L1288.97 139.615H1284.7L1282.42 129.888L1280.18 139.615H1275.92L1272.29 122.552H1276.38L1278.34 133.251L1280.68 122.552H1284.17L1286.55 133.251ZM1302.99 135.08C1302.99 134.478 1302.78 134.009 1302.35 133.673C1301.93 133.337 1301.18 132.99 1300.11 132.63C1299.04 132.271 1298.17 131.923 1297.49 131.587C1295.27 130.501 1294.17 129.009 1294.17 127.111C1294.17 126.166 1294.44 125.333 1294.99 124.615C1295.54 123.888 1296.33 123.326 1297.33 122.927C1298.34 122.521 1299.47 122.318 1300.73 122.318C1301.96 122.318 1303.06 122.537 1304.02 122.974C1305 123.412 1305.76 124.037 1306.3 124.849C1306.84 125.654 1307.11 126.576 1307.11 127.615H1303.01C1303.01 126.919 1302.79 126.38 1302.36 125.998C1301.94 125.615 1301.36 125.423 1300.64 125.423C1299.9 125.423 1299.32 125.587 1298.89 125.916C1298.47 126.236 1298.26 126.646 1298.26 127.146C1298.26 127.583 1298.49 127.982 1298.96 128.341C1299.43 128.693 1300.26 129.06 1301.44 129.443C1302.61 129.818 1303.58 130.224 1304.34 130.662C1306.19 131.724 1307.11 133.189 1307.11 135.056C1307.11 136.548 1306.54 137.72 1305.42 138.572C1304.29 139.423 1302.75 139.849 1300.79 139.849C1299.41 139.849 1298.15 139.603 1297.03 139.111C1295.91 138.611 1295.07 137.931 1294.5 137.072C1293.94 136.205 1293.65 135.208 1293.65 134.083H1297.78C1297.78 134.998 1298.01 135.673 1298.48 136.111C1298.96 136.541 1299.73 136.755 1300.79 136.755C1301.47 136.755 1302.01 136.611 1302.4 136.322C1302.79 136.025 1302.99 135.611 1302.99 135.08ZM1322.61 125.728H1317.49V139.615H1313.38V125.728H1308.35V122.552H1322.61V125.728ZM1332.64 136.427H1327.01L1326.02 139.615H1321.63L1327.88 122.552H1331.75L1338.06 139.615H1333.64L1332.64 136.427ZM1327.99 133.251H1331.66L1329.82 127.333L1327.99 133.251ZM1345.65 133.591H1343.42V139.615H1339.31V122.552H1346.02C1348.05 122.552 1349.63 123.001 1350.77 123.9C1351.91 124.798 1352.48 126.068 1352.48 127.708C1352.48 128.896 1352.24 129.88 1351.76 130.662C1351.28 131.443 1350.53 132.076 1349.51 132.56L1353.07 139.439V139.615H1348.66L1345.65 133.591ZM1343.42 130.416H1346.02C1346.81 130.416 1347.39 130.212 1347.78 129.806C1348.18 129.392 1348.38 128.818 1348.38 128.083C1348.38 127.349 1348.18 126.775 1347.78 126.361C1347.38 125.939 1346.8 125.728 1346.02 125.728H1343.42V130.416ZM1367.77 125.728H1362.65V139.615H1358.54V125.728H1353.51V122.552H1367.77V125.728Z" fill="white"/>
<path d="M1189.11 106.5C1185.82 108.404 1182.93 110.939 1180.61 113.961C1178.29 116.982 1176.59 120.43 1175.6 124.109C1174.62 127.788 1174.37 131.624 1174.86 135.4C1175.36 139.176 1176.6 142.817 1178.5 146.115C1180.4 149.413 1182.94 152.304 1185.96 154.622C1188.98 156.94 1192.43 158.641 1196.11 159.627C1199.79 160.612 1203.62 160.864 1207.4 160.367C1211.18 159.87 1214.82 158.634 1218.11 156.729L1203.61 131.615L1189.11 106.5Z" fill="#FF5784"/>
<path d="M1225.35 133.033C1224.18 131.008 1222.63 129.233 1220.77 127.81C1218.92 126.387 1216.8 125.343 1214.54 124.738C1212.28 124.133 1209.93 123.978 1207.61 124.283C1205.29 124.589 1203.06 125.347 1201.03 126.516C1199.01 127.685 1197.23 129.242 1195.81 131.096C1194.39 132.951 1193.34 135.068 1192.74 137.327C1192.13 139.585 1191.98 141.94 1192.28 144.258C1192.59 146.576 1193.35 148.811 1194.52 150.836L1209.93 141.934L1225.35 133.033Z" fill="#00D5FF"/>
<path d="M1216.78 111.914C1214.21 110.43 1211.38 109.467 1208.43 109.08C1205.49 108.692 1202.5 108.888 1199.64 109.656C1196.77 110.424 1194.08 111.749 1191.73 113.556C1189.37 115.363 1187.4 117.615 1185.91 120.185C1184.43 122.755 1183.47 125.592 1183.08 128.535C1182.69 131.477 1182.89 134.467 1183.66 137.333C1184.42 140.2 1185.75 142.887 1187.56 145.241C1189.36 147.595 1191.62 149.571 1194.19 151.055L1205.48 131.484L1216.78 111.914Z" fill="#FFC700"/>
</svg>
