<svg width="1440" height="838" viewBox="0 0 1440 838" fill="none" xmlns="http://www.w3.org/2000/svg">
<rect x="1" width="1439" height="838" fill="white"/>
<path d="M951.419 412.437L926.7 545.445L843 466.264L951.419 412.437Z" fill="#00D5FF"/>
<path d="M1476.29 461.641L1474.03 608.557L1370 539.005L1476.29 461.641Z" fill="#FF5784"/>
<path d="M-8.03533 247.644L-11.3357 195L30.4311 220.955L-8.03533 247.644Z" fill="#DFE0E2"/>
<path d="M294.662 727.875L261.465 624.988L350.401 648.819L294.662 727.875Z" fill="#E1E1E1"/>
<path d="M1208.74 230.611L1408.79 289.524L1281.52 424.12L1208.74 230.611Z" stroke="#E1E1E1" stroke-width="3"/>
<path d="M31.4717 320.145L106.288 337.748L45.1068 407.767L31.4717 320.145Z" fill="#FFC700"/>
<path d="M829.82 774.783L847.754 736.93L866.067 769.491L829.82 774.783Z" fill="#FF5784"/>
<path d="M593.053 391.577L497 311.82L604.556 283L593.053 391.577Z" fill="#FF5784"/>
<path d="M90 43H104V100H90V43Z" fill="#01D4FF"/>
</svg>
