<svg width="1385" height="392" viewBox="0 0 1385 392" fill="none" xmlns="http://www.w3.org/2000/svg">
<path d="M213.22 185.558C204.248 170.018 184.467 164.702 168.969 173.699C153.471 182.695 148.169 202.528 157.141 218.068L213.22 185.558Z" fill="#FF5784"/>
<path d="M273.887 301.081L279.801 300.366C282.146 299.854 284.389 301.286 284.899 303.637L285.817 307.829L281.637 308.749L271.338 312.225L267.158 313.145L260.734 301.592L258.083 295.867L269.503 290.449L272.154 296.174L273.887 301.081Z" fill="#FF5784"/>
<path d="M289.692 309.669L268.993 316.416C268.484 316.621 268.178 317.234 268.28 317.745C268.484 318.256 269.095 318.563 269.605 318.461L290.303 311.713C290.813 311.509 291.119 310.896 291.017 310.384C290.813 309.771 290.201 309.464 289.692 309.669Z" fill="#3D248A"/>
<path d="M271.542 293.516C270.625 294.129 269.503 294.538 268.585 295.152C268.076 295.458 267.974 296.072 268.28 296.583C268.585 297.094 269.299 297.196 269.707 296.89C270.625 296.276 271.746 295.867 272.664 295.254C273.174 294.947 273.276 294.232 272.97 293.823C272.664 293.311 272.052 293.209 271.542 293.516Z" fill="#3D248A"/>
<path d="M273.378 298.423C272.46 299.241 271.644 300.059 270.727 300.774C270.319 301.183 270.217 301.797 270.625 302.308C271.033 302.717 271.644 302.819 272.154 302.41C273.072 301.592 273.887 300.774 274.805 299.957C275.213 299.548 275.315 298.934 274.907 298.423C274.499 298.014 273.887 298.014 273.378 298.423Z" fill="#3D248A"/>
<path d="M312.225 263.971L316.507 259.779C318.037 257.939 320.688 257.632 322.523 259.166L325.786 261.824L323.033 265.095L317.119 274.194L314.366 277.568L302.233 272.456L296.625 269.593L302.335 258.245L307.943 261.108L312.225 263.971Z" fill="#FF5784"/>
<path d="M329.864 261.006L317.629 279.101C317.323 279.612 317.425 280.226 317.935 280.532C318.445 280.839 319.056 280.737 319.362 280.226L331.598 262.13C331.904 261.619 331.802 261.006 331.292 260.699C330.884 260.392 330.272 260.495 329.864 261.006Z" fill="#3D248A"/>
<path d="M305.801 259.37C305.495 260.392 304.884 261.415 304.476 262.437C304.272 262.948 304.578 263.562 305.088 263.766C305.597 263.971 306.209 263.664 306.413 263.153C306.821 262.13 307.433 261.108 307.739 260.086C307.943 259.575 307.637 258.961 307.025 258.757C306.515 258.552 305.903 258.859 305.801 259.37Z" fill="#3D248A"/>
<path d="M310.186 262.13C309.982 263.255 309.88 264.482 309.574 265.606C309.472 266.22 309.778 266.731 310.39 266.833C311.001 266.935 311.511 266.629 311.613 266.015C311.817 264.891 312.021 263.664 312.225 262.437C312.327 261.824 311.919 261.312 311.409 261.21C310.9 261.21 310.288 261.619 310.186 262.13Z" fill="#3D248A"/>
<path d="M188.75 147.936C191.503 153.865 189.769 161.431 183.346 161.84C182.224 161.942 181.102 161.533 180.083 161.124C177.636 160.102 176.106 158.261 174.985 156.012C173.761 153.661 172.946 150.901 171.926 148.243C171.824 147.936 171.416 147.731 171.11 147.834C170.804 147.936 170.6 148.345 170.702 148.652C171.722 151.31 172.538 154.172 173.761 156.523C175.087 158.977 176.82 161.124 179.573 162.146C180.797 162.657 182.122 162.964 183.346 162.862C190.687 162.351 192.93 153.968 189.769 147.118C189.667 146.811 189.259 146.709 188.953 146.811C188.75 147.22 188.648 147.629 188.75 147.936Z" fill="#3D248A"/>
<path d="M171.416 147.936C169.989 147.834 168.357 147.629 167.338 146.505C165.91 144.971 165.808 142.006 167.95 141.189C168.969 140.78 169.989 140.984 171.008 141.086C171.314 141.086 171.62 140.882 171.722 140.473C171.722 140.166 171.518 139.859 171.11 139.859C169.887 139.757 168.663 139.553 167.542 140.064C164.585 141.291 164.483 145.278 166.522 147.425C167.746 148.754 169.683 149.163 171.416 149.163C171.722 149.163 172.028 148.958 172.028 148.549C172.028 148.243 171.824 147.936 171.416 147.936Z" fill="#3D248A"/>
<path d="M181.918 281.35V322.55C181.918 323.164 182.428 323.572 182.938 323.572C183.55 323.572 183.957 323.061 183.957 322.55V281.35C183.957 280.737 183.448 280.328 182.938 280.328C182.428 280.328 181.918 280.839 181.918 281.35Z" fill="#3D248A"/>
<path d="M182.02 278.079L204.044 323.061C204.35 323.573 204.961 323.777 205.471 323.573C205.981 323.266 206.185 322.652 205.981 322.141L183.957 277.159C183.652 276.648 183.04 276.443 182.53 276.648C182.02 276.852 181.816 277.465 182.02 278.079Z" fill="#3D248A"/>
<path d="M182.02 277.056L159.997 322.039C159.691 322.55 159.997 323.164 160.506 323.47C161.016 323.777 161.628 323.47 161.934 322.959L183.958 277.976C184.263 277.465 183.958 276.852 183.448 276.545C182.938 276.341 182.326 276.545 182.02 277.056Z" fill="#3D248A"/>
<path d="M252.068 41.9201V79.133C252.068 79.6441 252.476 80.0531 252.985 80.0531C253.495 80.0531 253.903 79.6441 253.903 79.133V41.9201C253.903 41.4089 253.495 41 252.985 41C252.476 41 252.068 41.4089 252.068 41.9201Z" fill="#3D248A"/>
<path d="M327.111 293.925L342.304 325.004C342.61 325.515 343.221 325.719 343.731 325.515C344.241 325.208 344.445 324.595 344.241 324.084L329.049 293.005C328.743 292.494 328.131 292.289 327.621 292.494C327.009 292.8 326.806 293.414 327.111 293.925Z" fill="#3D248A"/>
<path d="M401.747 233.198L446.712 325.004C447.018 325.515 447.63 325.719 448.14 325.515C448.649 325.208 448.853 324.595 448.649 324.084L403.684 232.176C403.379 231.665 402.767 231.46 402.257 231.665C401.747 231.972 401.543 232.585 401.747 233.198Z" fill="#3D248A"/>
<path d="M297.339 232.176L274.907 278.079C274.601 278.59 274.907 279.203 275.417 279.51C275.927 279.817 276.538 279.51 276.844 278.999L299.276 233.096C299.582 232.585 299.276 231.972 298.766 231.665C298.256 231.46 297.542 231.665 297.339 232.176Z" fill="#3D248A"/>
<path d="M257.778 313.043L252.374 324.084C252.068 324.595 252.374 325.208 252.883 325.515C253.393 325.822 254.005 325.515 254.311 325.004L259.715 313.963C260.021 313.451 259.715 312.838 259.205 312.531C258.695 312.327 258.083 312.531 257.778 313.043Z" fill="#3D248A"/>
<path d="M401.747 232.176L356.782 323.981C356.476 324.493 356.782 325.106 357.292 325.413C357.802 325.719 358.414 325.413 358.719 324.902L403.684 233.096C403.99 232.585 403.684 231.972 403.175 231.665C402.665 231.46 402.053 231.665 401.747 232.176Z" fill="#3D248A"/>
<path d="M224.64 250.68C220.867 253.134 198.334 266.833 172.742 262.744C164.177 261.415 159.079 257.837 156.02 253.645C148.985 243.831 153.471 230.029 153.471 230.029C153.573 229.722 153.777 229.62 154.083 229.62H221.173C232.389 229.62 242.687 235.754 248.193 245.569C256.86 261.108 268.789 282.782 268.789 282.782C268.891 282.884 268.891 283.088 268.891 283.293C268.891 283.497 268.687 283.599 268.585 283.702L251.354 292.8C251.048 292.903 250.742 292.903 250.538 292.596L224.64 250.68ZM154.694 230.949C153.981 233.301 151.228 244.649 157.142 253.032C159.996 257.019 164.891 260.29 173.048 261.619C200.577 266.015 224.538 249.351 224.538 249.351C224.64 249.249 224.844 249.249 225.048 249.249C225.252 249.249 225.354 249.351 225.456 249.556L251.456 291.471L267.668 282.986L247.377 246.284C242.177 236.879 232.287 231.051 221.479 231.051H154.694V230.949Z" fill="#3D248A"/>
<path d="M296.727 255.792L259.001 236.061C258.695 235.856 258.593 235.55 258.695 235.243C258.899 234.936 259.205 234.834 259.511 234.936L297.746 254.974C298.052 255.076 298.154 255.485 298.052 255.792L292.037 270.309C291.935 270.513 291.833 270.616 291.629 270.616C291.425 270.718 291.323 270.616 291.119 270.616L260.836 254.361C260.53 254.156 260.429 253.849 260.53 253.543C260.734 253.236 261.04 253.134 261.346 253.236L291.017 269.184L296.727 255.792Z" fill="#3D248A"/>
<path d="M168.561 137.406C168.561 140.575 178.553 148.14 189.361 147.629C199.048 147.118 200.577 131.374 189.361 128.614C176.106 125.342 168.561 137.406 168.561 137.406Z" fill="#3D248A"/>
<path d="M172.028 140.575C171.008 140.575 170.091 140.677 169.071 140.882C166.624 141.495 164.687 143.949 166.624 146.3C168.255 148.243 174.577 149.061 172.334 152.945C170.702 155.603 166.828 155.297 164.279 154.683C158.161 153.252 153.879 148.038 152.961 142.211C152.044 136.281 157.142 130.147 162.851 128.921C167.746 127.898 174.169 129.636 175.393 135.055L172.028 140.575Z" fill="#3D248A"/>
<path d="M158.671 146.914C152.961 147.22 148.067 148.345 143.581 152.23C138.585 156.626 137.871 164.804 144.192 168.485C148.781 171.143 155.204 169.916 159.385 166.951C160.812 165.929 162.24 164.804 163.361 163.373C163.667 162.862 163.973 162.453 164.177 161.942C164.279 161.737 164.585 160.92 164.483 161.226C164.075 163.169 163.973 165.213 165.298 166.849C168.153 170.427 173.863 168.076 175.189 164.395C176.718 159.999 174.475 156.421 172.742 152.536L158.671 146.914Z" fill="#3D248A"/>
<path d="M185.895 174.21C185.895 174.414 185.895 174.619 185.895 174.823C185.793 175.641 185.487 176.663 184.773 177.379C184.263 177.89 183.652 178.299 182.938 178.299C181.306 178.299 180.287 177.379 179.675 176.05C178.961 174.21 179.063 171.654 179.369 170.325C179.471 170.018 179.777 169.814 180.083 169.814C180.389 169.916 180.593 170.223 180.593 170.529C180.287 171.756 180.185 173.903 180.797 175.539C181.204 176.459 181.816 177.072 182.836 177.072C183.346 177.072 183.754 176.766 183.957 176.357C184.263 175.846 184.467 175.232 184.569 174.721C184.569 174.312 184.569 173.903 184.467 173.494C184.467 173.29 184.263 173.085 184.263 172.881C184.263 172.676 184.263 172.574 184.263 172.472C184.365 172.267 184.467 172.165 184.569 172.063C184.671 171.961 184.875 171.961 185.181 172.063C185.385 172.165 185.589 172.267 185.793 172.472C186.099 172.676 186.303 173.085 186.506 173.29C187.118 173.801 187.628 174.414 188.444 174.619C188.954 174.823 189.565 174.823 190.075 174.721C190.279 174.619 190.585 174.517 190.687 174.312C190.891 174.108 190.891 173.801 190.789 173.392C190.585 172.267 189.871 171.756 189.157 170.938C188.954 170.632 188.954 170.325 189.259 170.018C189.565 169.814 189.871 169.814 190.177 170.12C190.993 171.041 191.707 171.756 192.012 173.085C192.216 173.903 192.012 174.517 191.707 175.028C191.401 175.437 190.891 175.743 190.381 175.846C189.667 176.05 188.75 175.948 188.036 175.641C187.22 175.334 186.506 174.823 185.895 174.21Z" fill="white"/>
<path d="M179.981 221.953L230.758 210.4C231.064 210.298 231.471 210.503 231.471 210.912C231.573 211.218 231.369 211.627 230.962 211.627L179.879 223.282C179.675 223.282 179.471 223.282 179.369 223.179C179.369 223.179 160.71 205.902 153.267 192.101C151.636 189.034 150.514 186.171 150.31 183.717C150.004 181.059 150.616 178.81 152.451 177.175C159.181 171.041 166.522 173.699 172.844 179.321C181.102 186.682 187.73 198.95 188.954 201.199L230.86 197.826C231.166 197.826 231.471 198.03 231.573 198.439C231.573 198.746 231.369 199.052 230.962 199.155L188.546 202.528C188.342 202.528 188.036 202.426 187.934 202.222C187.934 202.222 181.001 188.318 171.926 180.344C166.114 175.232 159.385 172.574 153.165 178.197C151.636 179.526 151.228 181.468 151.432 183.615C151.738 185.967 152.757 188.727 154.287 191.589C161.22 204.164 177.738 219.908 179.981 221.953Z" fill="#3D248A"/>
<path d="M307.127 218.068H230.86V222.668H307.127V218.068Z" fill="#3D248A"/>
<path d="M318.547 185.558H268.382L256.86 218.068H307.127L318.547 185.558Z" fill="#3D248A"/>
<path d="M231.471 198.235C232.593 193.634 235.448 189.545 239.832 187.5C240.75 187.091 242.381 186.682 243.809 186.887C244.523 186.989 245.134 187.193 245.542 187.705C245.746 188.011 245.848 188.42 245.848 188.931C245.746 189.954 245.032 190.465 244.217 190.772C243.197 191.181 241.974 191.283 240.954 191.487C238.201 192.203 236.06 194.043 235.244 196.906C235.142 197.212 235.346 197.621 235.652 197.723C235.958 197.826 236.366 197.621 236.468 197.315C237.181 194.963 239.017 193.43 241.26 192.816C242.279 192.51 243.503 192.407 244.625 191.998C245.848 191.487 246.868 190.669 247.072 189.034C247.174 188.114 246.97 187.398 246.562 186.887C246.154 186.376 245.644 185.967 244.93 185.762C243.197 185.251 240.648 185.66 239.323 186.273C234.53 188.522 231.471 192.918 230.248 197.928C230.146 198.235 230.35 198.644 230.656 198.644C231.064 198.746 231.37 198.541 231.471 198.235Z" fill="#3D248A"/>
<path d="M236.366 197.519C239.73 195.781 244.013 194.35 247.479 196.394C248.397 196.906 249.213 197.417 249.621 198.337C250.232 199.564 249.926 201.302 248.397 201.404C247.887 201.404 247.275 201.097 246.766 200.79C246.052 200.382 245.44 199.87 244.828 199.564C243.401 198.848 241.77 198.848 240.24 198.644C239.934 198.644 239.628 198.848 239.526 199.257C239.526 199.564 239.73 199.87 240.138 199.973C241.566 200.075 242.993 200.075 244.217 200.688C244.93 200.995 245.644 201.711 246.46 202.119C247.072 202.528 247.785 202.733 248.499 202.631C250.946 202.426 251.66 199.768 250.742 197.723C250.232 196.497 249.111 195.781 248.091 195.168C244.217 192.918 239.424 194.35 235.754 196.292C235.448 196.497 235.346 196.803 235.448 197.11C235.754 197.519 236.06 197.621 236.366 197.519Z" fill="#3D248A"/>
<path d="M239.934 199.87C242.177 200.893 243.911 201.711 244.523 204.471C244.624 204.88 244.726 205.493 244.523 206.004C244.421 206.413 244.217 206.72 243.809 206.822C243.503 206.924 243.197 206.72 242.993 206.413C242.585 206.107 242.177 205.595 241.872 205.289C240.648 204.266 239.119 203.857 237.691 203.449C237.385 203.346 236.977 203.551 236.977 203.857C236.875 204.164 237.079 204.573 237.385 204.573C238.711 204.88 240.036 205.289 241.158 206.107C241.566 206.413 242.075 207.027 242.585 207.436C243.095 207.742 243.605 207.947 244.217 207.845C244.93 207.64 245.44 207.231 245.746 206.515C246.052 205.698 246.052 204.675 245.848 203.96C245.032 200.893 243.197 199.87 240.546 198.644C240.24 198.541 239.832 198.644 239.73 198.95C239.424 199.359 239.628 199.666 239.934 199.87Z" fill="#3D248A"/>
<path d="M198.436 169.303C200.271 166.849 202.718 165.724 205.063 165.827C207.51 165.929 209.856 167.36 211.589 169.814C215.463 175.334 215.158 183.002 215.565 189.443C215.565 189.749 215.871 190.056 216.177 190.056C216.483 190.056 216.789 189.749 216.789 189.443C216.483 182.695 216.585 174.823 212.609 169.098C210.569 166.236 207.816 164.702 205.063 164.6C202.31 164.498 199.456 165.725 197.314 168.587C197.11 168.894 197.212 169.303 197.416 169.507C197.824 169.609 198.232 169.609 198.436 169.303Z" fill="#3D248A"/>
<path d="M254.821 180.037C252.272 177.072 249.825 173.699 247.785 170.325C247.581 170.018 247.174 169.916 246.97 170.121C246.664 170.325 246.562 170.734 246.766 170.938C248.907 174.312 251.354 177.788 253.903 180.753C254.107 181.059 254.515 181.059 254.821 180.855C255.025 180.651 255.025 180.242 254.821 180.037Z" fill="#3D248A"/>
<path d="M265.832 176.152C264.303 168.485 262.264 161.022 261.142 153.354C261.142 153.048 260.734 152.741 260.429 152.843C260.123 152.843 259.817 153.252 259.919 153.559C260.938 161.328 263.08 168.791 264.609 176.459C264.711 176.766 265.017 176.97 265.323 176.97C265.629 176.766 265.832 176.459 265.832 176.152Z" fill="#3D248A"/>
<path d="M277.966 174.823C278.986 170.529 280.311 166.236 281.738 162.044C281.84 161.737 281.637 161.328 281.331 161.226C281.025 161.124 280.617 161.328 280.515 161.635C279.087 165.827 277.762 170.223 276.742 174.517C276.64 174.823 276.844 175.232 277.252 175.232C277.558 175.334 277.864 175.13 277.966 174.823Z" fill="#3D248A"/>
<path d="M292.954 198.439C292.444 198.235 291.731 198.337 291.119 198.643C290.405 199.052 289.59 199.87 289.182 200.995C288.774 202.119 288.774 203.244 289.08 204.062C289.284 204.675 289.691 205.186 290.303 205.391C290.813 205.595 291.527 205.493 292.139 205.186C292.852 204.777 293.668 203.96 294.076 202.835C294.484 201.71 294.484 200.586 294.178 199.768C293.974 199.155 293.566 198.643 292.954 198.439ZM292.546 199.564C292.75 199.666 292.954 199.87 293.056 200.177C293.26 200.79 293.26 201.608 292.954 202.324C292.648 203.142 292.139 203.755 291.629 204.062C291.323 204.164 291.119 204.266 290.915 204.164C290.711 204.062 290.507 203.857 290.405 203.551C290.201 202.937 290.201 202.119 290.507 201.404C290.813 200.586 291.323 199.973 291.833 199.666C292.037 199.564 292.342 199.461 292.546 199.564Z" fill="white"/>
<path d="M511.458 268.264C513.701 257.223 520.838 235.243 543.576 226.553C553.976 222.566 567.944 227.678 566.415 241.173C565.905 245.773 563.458 249.658 560.297 252.929C557.238 256.201 553.364 258.961 549.999 261.312C544.289 265.402 537.254 269.798 531.238 275.114C525.325 280.328 520.328 286.257 518.697 293.516C518.595 293.823 518.289 294.027 517.983 294.027C517.677 293.925 517.473 293.618 517.473 293.311C519.207 285.848 524.305 279.612 530.423 274.194C536.438 268.878 543.576 264.379 549.285 260.29C552.65 257.939 556.321 255.281 559.38 252.009C562.337 248.84 564.682 245.262 565.191 240.968C566.619 228.598 553.67 223.997 544.085 227.678C516.658 238.208 512.477 268.469 511.866 273.989C511.764 274.603 511.764 274.909 511.764 274.909C511.662 275.421 511.152 275.421 511.05 275.421C511.05 275.421 510.54 275.318 510.54 274.807C510.54 265.197 509.113 260.699 506.462 257.121C504.932 255.076 502.791 254.667 500.752 255.485C497.489 256.814 494.532 261.006 494.532 266.731C494.532 275.932 497.693 285.644 503.199 293.005C503.403 293.311 503.301 293.72 503.097 293.925C502.791 294.129 502.383 294.027 502.179 293.823C496.571 286.257 493.207 276.239 493.207 266.731C493.207 260.495 496.571 255.792 500.242 254.361C502.791 253.338 505.544 253.849 507.481 256.405C509.521 259.268 510.846 262.539 511.458 268.264Z" fill="#3D248A"/>
<path d="M513.599 293.516C513.395 274.398 530.015 251.498 546.431 243.728C546.736 243.626 546.838 243.217 546.736 242.911C546.634 242.604 546.227 242.502 545.921 242.604C529.097 250.578 512.171 273.989 512.375 293.516C512.375 293.823 512.681 294.129 512.987 294.129C513.293 294.129 513.599 293.823 513.599 293.516Z" fill="#3D248A"/>
<path d="M503.301 270.922C504.626 276.034 505.646 280.839 506.258 286.053C506.258 286.36 506.564 286.666 506.971 286.564C507.277 286.564 507.583 286.257 507.481 285.848C506.87 280.532 505.85 275.625 504.524 270.513C504.422 270.207 504.117 270.002 503.811 270.104C503.403 270.207 503.199 270.513 503.301 270.922Z" fill="#3D248A"/>
<path d="M521.348 292.903C521.144 293.107 521.144 293.516 521.348 293.72C521.552 293.925 521.858 294.027 522.164 293.823C522.164 293.823 531.034 288.302 542.352 293.311C545.207 294.538 547.042 294.232 548.164 293.311C549.184 292.391 549.591 290.858 549.285 289.018C548.878 286.564 547.246 283.702 544.493 282.168C541.536 280.43 537.968 280.737 534.399 282.27C529.403 284.315 524.305 288.915 521.348 292.903ZM524.101 291.471C527.67 290.04 534.705 288.404 542.964 292.085C545.105 293.005 546.634 293.005 547.45 292.289C548.266 291.676 548.368 290.449 548.164 289.12C547.858 286.973 546.329 284.519 543.983 283.088C541.332 281.555 538.172 281.861 535.011 283.19C531.034 285.031 526.956 288.2 524.101 291.471Z" fill="#00D5FF"/>
<path d="M497.591 294.027C497.795 294.129 498.101 294.129 498.305 293.925C498.509 293.72 498.509 293.414 498.407 293.209C498.407 293.209 494.43 284.111 485.865 283.906C483.622 283.804 481.787 284.622 480.665 285.644C479.748 286.462 479.238 287.586 479.34 288.609C479.442 289.631 480.054 290.756 481.481 291.574C483.112 292.494 484.744 292.698 486.579 292.698C488.211 292.698 489.944 292.494 491.677 292.494C493.92 292.494 495.858 293.209 497.591 294.027ZM496.469 292.187C495.042 289.733 491.575 285.337 485.865 285.133C483.928 285.031 482.399 285.746 481.481 286.666C480.971 287.178 480.665 287.893 480.665 288.507C480.767 289.222 481.277 289.938 482.195 290.449C483.622 291.267 485.152 291.471 486.681 291.471C488.312 291.471 490.046 291.267 491.881 291.267C493.411 291.267 495.042 291.676 496.469 292.187Z" fill="#3D248A"/>
<path d="M443.245 68.0918H334.147C333.637 68.0918 333.127 68.5007 333.127 69.1141V212.956C333.127 213.467 333.535 213.979 334.147 213.979H443.245C443.755 213.979 444.265 213.57 444.265 212.956V69.0119C444.265 68.5007 443.755 68.0918 443.245 68.0918ZM335.166 70.0342H442.328V211.934H335.166V70.0342Z" fill="#3D248A"/>
<path d="M513.905 68.3985H454.767C454.257 68.3985 453.748 68.8074 453.748 69.4208V213.263C453.748 213.774 454.155 214.285 454.767 214.285H513.905C514.415 214.285 514.924 213.876 514.924 213.263V69.3186C514.924 68.8074 514.415 68.3985 513.905 68.3985ZM455.685 70.3409H512.885V212.241H455.685V70.3409Z" fill="#3D248A"/>
<path d="M595.27 335.227H103.612C103.306 335.227 103 335.534 103 335.84V350.46C103 350.767 103.306 351.073 103.612 351.073H595.27C595.576 351.073 595.882 350.767 595.882 350.46V335.84C595.882 335.534 595.576 335.227 595.27 335.227ZM594.658 349.744H104.224V336.454H594.658V349.744Z" fill="#3D248A"/>
<path d="M454.971 81.4844H513.905C514.313 81.4844 514.517 81.1777 514.517 80.871C514.517 80.462 514.211 80.2576 513.905 80.2576H454.971C454.563 80.2576 454.359 80.5643 454.359 80.871C454.359 81.1777 454.665 81.4844 454.971 81.4844Z" fill="#3D248A"/>
<path d="M514.517 90.3787C514.517 90.7876 514.211 90.9921 513.905 90.9921H454.971C454.563 90.9921 454.359 90.6854 454.359 90.3787C454.359 89.9697 454.665 89.7653 454.971 89.7653H513.905C514.313 89.7653 514.517 89.9697 514.517 90.3787Z" fill="#3D248A"/>
<path d="M454.971 100.602H513.905C514.313 100.602 514.517 100.295 514.517 99.9885C514.517 99.5796 514.211 99.3751 513.905 99.3751H454.971C454.563 99.3751 454.359 99.6818 454.359 99.9885C454.359 100.295 454.665 100.602 454.971 100.602Z" fill="#3D248A"/>
<path d="M454.971 110.11H513.905C514.313 110.11 514.517 109.803 514.517 109.496C514.517 109.087 514.211 108.883 513.905 108.883H454.971C454.563 108.883 454.359 109.19 454.359 109.496C454.359 109.905 454.665 110.11 454.971 110.11Z" fill="#3D248A"/>
<path d="M454.971 119.72H513.905C514.313 119.72 514.517 119.413 514.517 119.106C514.517 118.697 514.211 118.493 513.905 118.493H454.971C454.563 118.493 454.359 118.799 454.359 119.106C454.359 119.413 454.665 119.72 454.971 119.72Z" fill="#3D248A"/>
<path d="M454.767 129.329H513.701C514.109 129.329 514.313 129.023 514.313 128.716C514.313 128.307 514.007 128.103 513.701 128.103H454.767C454.359 128.103 454.155 128.409 454.155 128.716C454.053 129.023 454.359 129.329 454.767 129.329Z" fill="#3D248A"/>
<path d="M454.971 138.837H513.905C514.313 138.837 514.517 138.53 514.517 138.224C514.517 137.815 514.211 137.61 513.905 137.61H454.971C454.563 137.61 454.359 137.917 454.359 138.224C454.359 138.53 454.665 138.837 454.971 138.837Z" fill="#3D248A"/>
<path d="M253.087 97.3305C257.064 97.3305 260.327 100.602 260.327 104.589C260.327 108.576 257.064 111.848 253.087 111.848C249.111 111.848 245.848 108.576 245.848 104.589C245.746 100.602 249.009 97.3305 253.087 97.3305Z" fill="#FFC700"/>
<path d="M282.656 103.362C282.656 87.0049 269.401 73.7146 253.087 73.7146C236.773 73.7146 223.518 87.0049 223.518 103.362H282.656Z" fill="#3D248A"/>
<path d="M494.328 299.752H532.462L522.877 325.924H503.913L494.328 299.752Z" fill="#FFC700"/>
<path d="M443.653 195.065C429.277 187.091 419.284 185.047 409.394 176.05C400.218 167.667 395.629 156.728 392.571 145.38C392.469 145.073 392.163 144.869 391.755 144.971C391.449 145.073 391.245 145.38 391.347 145.789C394.508 157.444 399.198 168.587 408.579 177.072C418.571 186.171 428.563 188.216 443.042 196.19C443.347 196.394 443.755 196.292 443.959 195.985C444.061 195.679 443.959 195.27 443.653 195.065Z" fill="#3D248A"/>
<path d="M421.222 183.717C419.794 173.29 419.081 162.249 419.794 151.719C419.794 151.31 419.59 151.003 419.183 151.003C418.775 151.003 418.469 151.207 418.469 151.616C417.755 162.249 418.469 173.29 419.896 183.82C419.896 184.126 420.304 184.433 420.61 184.331C421.018 184.433 421.324 184.126 421.222 183.717Z" fill="#3D248A"/>
<path d="M401.441 167.054C396.445 165.622 389.41 166.542 384.72 168.485C384.414 168.587 384.21 168.996 384.414 169.303C384.516 169.609 384.924 169.814 385.229 169.609C389.716 167.769 396.445 166.849 401.135 168.178C401.441 168.28 401.849 168.076 401.951 167.769C401.951 167.565 401.747 167.156 401.441 167.054Z" fill="#3D248A"/>
<path d="M431.214 134.646C432.234 137.406 431.52 141.495 428.869 144.46C426.218 147.527 422.241 148.856 419.183 148.345C418.163 145.585 418.877 141.597 421.63 138.53C424.179 135.566 428.155 134.237 431.214 134.646Z" fill="#00D5FF"/>
<path d="M403.481 126.569C407.967 126.365 413.575 128.92 417.143 133.725C420.712 138.633 421.222 144.562 419.488 148.447C415.104 148.652 409.394 146.096 405.826 141.188C402.257 136.486 401.645 130.454 403.481 126.569Z" fill="#00D5FF"/>
<path d="M363.919 151.31C368.406 151.105 374.014 153.661 377.582 158.466C381.151 163.373 381.661 169.303 379.927 173.188C375.543 173.392 369.833 170.836 366.265 165.929C362.798 161.226 362.186 155.194 363.919 151.31Z" fill="#00D5FF"/>
<path d="M367.59 129.841C371.261 127.489 377.48 127.08 383.088 129.534C388.696 132.09 392.265 136.997 392.775 141.291C389.104 143.642 382.884 144.051 377.276 141.495C371.77 139.042 368.1 134.134 367.59 129.841Z" fill="#00D5FF"/>
<path d="M408.375 148.345C409.904 150.39 410.312 153.968 408.885 157.137C407.457 160.306 404.5 162.351 401.849 162.657C400.32 160.613 399.912 157.035 401.339 153.865C402.767 150.798 405.724 148.652 408.375 148.345Z" fill="#00D5FF"/>
<path d="M396.445 194.656C396.241 191.385 398.179 187.296 401.951 184.842C405.724 182.286 410.414 181.98 413.473 183.309C413.677 186.478 411.739 190.567 407.967 193.123C404.194 195.679 399.504 195.985 396.445 194.656Z" fill="#00D5FF"/>
<path d="M393.896 125.956C396.037 127.489 397.465 130.761 397.057 134.237C396.649 137.713 394.508 140.575 392.061 141.597C390.022 140.064 388.492 136.792 388.9 133.317C389.308 129.943 391.551 127.08 393.896 125.956Z" fill="#00D5FF"/>
<path d="M440.085 158.261C440.696 161.431 439.269 165.724 435.904 168.689C432.438 171.654 427.849 172.574 424.587 171.552C423.975 168.383 425.402 164.089 428.869 161.124C432.234 158.159 436.822 157.239 440.085 158.261Z" fill="#00D5FF"/>
<path d="M369.221 195.27C366.672 191.692 366.163 185.66 368.712 180.446C371.261 175.13 376.359 171.756 380.743 171.347C383.19 174.926 383.802 180.855 381.253 186.171C378.704 191.385 373.708 194.759 369.221 195.27Z" fill="#00D5FF"/>
<path d="M430.5 228.905H245.644V232.687H430.5V228.905Z" fill="#3D248A"/>
<path d="M205.063 273.785H161.016V281.452H205.063V273.785Z" fill="#00D5FF"/>
<path d="M1351.93 275.962L1336.67 358.075L1285 309.192L1351.93 275.962Z" fill="#00D5FF"/>
<path d="M5.3826 292.67L33.8604 288.004L23.0532 319.223L5.3826 292.67Z" fill="#E1E1E1"/>
<path d="M1237.41 25.9023L1358.92 61.6872L1281.61 143.443L1237.41 25.9023Z" stroke="#E1E1E1" stroke-width="3"/>
<path d="M601.812 100.697L648 111.564L610.229 154.791L601.812 100.697Z" fill="#FFC700"/>
<path d="M1094.67 381.369L1105.75 358L1117.05 378.102L1094.67 381.369Z" fill="#FF5784"/>
</svg>
