<svg width="194" height="66" viewBox="0 0 194 66" fill="none" xmlns="http://www.w3.org/2000/svg">
<path d="M74.5078 32.6367L76.4648 21.9375H80.543L76.9219 39H72.6562L70.3711 29.2734L68.1328 39H63.8789L60.2461 21.9375H64.3359L66.293 32.6367L68.6367 21.9375H72.1289L74.5078 32.6367ZM96.5977 30.8203C96.5977 32.4844 96.2891 33.957 95.6719 35.2383C95.0547 36.5195 94.1758 37.5078 93.0352 38.2031C91.9023 38.8906 90.6094 39.2344 89.1562 39.2344C87.7031 39.2344 86.4141 38.9023 85.2891 38.2383C84.1641 37.5664 83.2852 36.6094 82.6523 35.3672C82.0273 34.125 81.6992 32.6992 81.668 31.0898V30.1289C81.668 28.457 81.9727 26.9844 82.582 25.7109C83.1992 24.4297 84.0781 23.4414 85.2188 22.7461C86.3672 22.0508 87.6719 21.7031 89.1328 21.7031C90.5781 21.7031 91.8672 22.0469 93 22.7344C94.1328 23.4219 95.0117 24.4023 95.6367 25.6758C96.2695 26.9414 96.5898 28.3945 96.5977 30.0352V30.8203ZM92.4141 30.1055C92.4141 28.4102 92.1289 27.125 91.5586 26.25C90.9961 25.3672 90.1875 24.9258 89.1328 24.9258C87.0703 24.9258 85.9805 26.4727 85.8633 29.5664L85.8516 30.8203C85.8516 32.4922 86.1289 33.7773 86.6836 34.6758C87.2383 35.5742 88.0625 36.0234 89.1562 36.0234C90.1953 36.0234 90.9961 35.582 91.5586 34.6992C92.1211 33.8164 92.4062 32.5469 92.4141 30.8906V30.1055ZM111.938 32.6367L113.895 21.9375H117.973L114.352 39H110.086L107.801 29.2734L105.562 39H101.309L97.6758 21.9375H101.766L103.723 32.6367L106.066 21.9375H109.559L111.938 32.6367ZM128.379 34.4648C128.379 33.8633 128.164 33.3945 127.734 33.0586C127.312 32.7227 126.566 32.375 125.496 32.0156C124.426 31.6562 123.551 31.3086 122.871 30.9727C120.66 29.8867 119.555 28.3945 119.555 26.4961C119.555 25.5508 119.828 24.7188 120.375 24C120.93 23.2734 121.711 22.7109 122.719 22.3125C123.727 21.9062 124.859 21.7031 126.117 21.7031C127.344 21.7031 128.441 21.9219 129.41 22.3594C130.387 22.7969 131.145 23.4219 131.684 24.2344C132.223 25.0391 132.492 25.9609 132.492 27H128.391C128.391 26.3047 128.176 25.7656 127.746 25.3828C127.324 25 126.75 24.8086 126.023 24.8086C125.289 24.8086 124.707 24.9727 124.277 25.3008C123.855 25.6211 123.645 26.0312 123.645 26.5312C123.645 26.9688 123.879 27.3672 124.348 27.7266C124.816 28.0781 125.641 28.4453 126.82 28.8281C128 29.2031 128.969 29.6094 129.727 30.0469C131.57 31.1094 132.492 32.5742 132.492 34.4414C132.492 35.9336 131.93 37.1055 130.805 37.957C129.68 38.8086 128.137 39.2344 126.176 39.2344C124.793 39.2344 123.539 38.9883 122.414 38.4961C121.297 37.9961 120.453 37.3164 119.883 36.457C119.32 35.5898 119.039 34.5938 119.039 33.4688H123.164C123.164 34.3828 123.398 35.0586 123.867 35.4961C124.344 35.9258 125.113 36.1406 126.176 36.1406C126.855 36.1406 127.391 35.9961 127.781 35.707C128.18 35.4102 128.379 34.9961 128.379 34.4648ZM147.996 25.1133H142.875V39H138.762V25.1133H133.734V21.9375H147.996V25.1133ZM158.027 35.8125H152.391L151.406 39H147.012L153.27 21.9375H157.137L163.441 39H159.023L158.027 35.8125ZM153.375 32.6367H157.043L155.203 26.7188L153.375 32.6367ZM171.035 32.9766H168.809V39H164.695V21.9375H171.41C173.434 21.9375 175.016 22.3867 176.156 23.2852C177.297 24.1836 177.867 25.4531 177.867 27.0938C177.867 28.2812 177.625 29.2656 177.141 30.0469C176.664 30.8281 175.914 31.4609 174.891 31.9453L178.453 38.8242V39H174.047L171.035 32.9766ZM168.809 29.8008H171.41C172.191 29.8008 172.777 29.5977 173.168 29.1914C173.566 28.7773 173.766 28.2031 173.766 27.4688C173.766 26.7344 173.566 26.1602 173.168 25.7461C172.77 25.3242 172.184 25.1133 171.41 25.1133H168.809V29.8008ZM193.16 25.1133H188.039V39H183.926V25.1133H178.898V21.9375H193.16V25.1133Z" fill="white"/>
<path d="M50.7377 32.418C49.5687 30.3933 48.0124 28.6187 46.1575 27.1954C44.3027 25.7721 42.1857 24.7282 39.9274 24.1231C37.6692 23.518 35.3138 23.3636 32.9958 23.6687C30.6779 23.9739 28.4428 24.7326 26.418 25.9016C24.3933 27.0706 22.6187 28.6269 21.1954 30.4817C19.7721 32.3365 18.7282 34.4535 18.1231 36.7118C17.5179 38.9701 17.3636 41.3255 17.6687 43.6434C17.9739 45.9614 18.7326 48.1965 19.9016 50.2212L35.3196 41.3196L50.7377 32.418Z" fill="#00D5FF"/>
<path d="M42.1686 11.299C39.5986 9.81523 36.7614 8.85215 33.8192 8.4648C30.877 8.07745 27.8872 8.2734 25.0207 9.04148C22.1542 9.80956 19.4671 11.1347 17.1127 12.9413C14.7583 14.7479 12.7829 17.0005 11.299 19.5705C9.81524 22.1405 8.85216 24.9777 8.46481 27.9199C8.07746 30.8621 8.27341 33.8519 9.04149 36.7184C9.80957 39.5849 11.1347 42.272 12.9413 44.6264C14.7479 46.9808 17.0005 48.9562 19.5705 50.44L30.8696 30.8695L42.1686 11.299Z" fill="#FFC700"/>
</svg>
