<svg width="1440" height="490" viewBox="0 0 1440 490" fill="none" xmlns="http://www.w3.org/2000/svg">
<rect x="-1" width="1441" height="490" fill="#FF5784"/>
<rect x="-1" width="1441" height="490" fill="white"/>
<circle cx="866.675" cy="233.735" r="93.7351" fill="#3D248A"/>
<circle cx="1156.15" cy="233.735" r="93.7351" fill="#00D5FF"/>
<circle cx="577.205" cy="233.735" r="93.7351" fill="#FFC700"/>
<circle cx="287.735" cy="233.735" r="93.7351" fill="#FF5784"/>
<path d="M263.283 199H259.552V216.774H263.283V199Z" fill="white"/>
<path d="M279.241 199H275.51V216.774H279.241V199Z" fill="white"/>
<path d="M295.199 199H291.467V216.774H295.199V199Z" fill="white"/>
<path d="M311.108 199H307.376V216.774H311.108V199Z" fill="white"/>
<path d="M285.821 242.111H259.257V246.431H285.821V242.111Z" fill="white"/>
<path d="M274.233 252.176H259.257V256.497H274.233V252.176Z" fill="white"/>
<path d="M325.691 268.969H246V205.334H325.691V268.969ZM249.437 265.581H322.254V208.771H249.437V265.581Z" fill="white"/>
<path d="M562.767 275.792C558.121 275.792 553.67 273.983 550.296 270.608L541.639 261.952L559.832 243.759L566.581 250.508C567.315 251.242 568.244 251.633 569.271 251.633C570.298 251.633 571.227 251.242 571.961 250.508L586.779 235.69C588.247 234.223 588.247 231.777 586.779 230.31L579.981 223.61L598.174 205.417L606.831 214.074C610.988 218.231 612.797 224.197 611.672 229.968C610.988 233.391 609.325 236.521 606.831 239.015L575.238 270.608C572.743 273.103 569.613 274.765 566.19 275.45C565.065 275.695 563.892 275.792 562.767 275.792ZM546.921 261.952L552.937 267.968C556.213 271.244 560.908 272.662 565.457 271.782C568.146 271.244 570.64 269.924 572.597 267.968L604.19 236.374C606.146 234.418 607.466 231.973 608.004 229.234C608.885 224.686 607.466 219.991 604.19 216.714L598.174 210.699L585.263 223.61L589.371 227.718C592.306 230.653 592.306 235.445 589.371 238.38L574.602 253.198C573.184 254.616 571.276 255.399 569.271 255.399C567.266 255.399 565.359 254.616 563.94 253.198L559.832 249.09L546.921 261.952Z" fill="white"/>
<path d="M571.684 231.592L562.07 221.979L559.442 224.607L569.055 234.22L571.684 231.592Z" fill="white"/>
<path d="M573.111 214.426L563.497 204.812L560.869 207.441L570.483 217.054L573.111 214.426Z" fill="white"/>
<path d="M899.436 207.584H833.794V211.65H899.436V207.584Z" fill="white"/>
<path d="M901.469 277.292H831.761V234.708H835.827V273.226H897.349V234.708H901.469V277.292Z" fill="white"/>
<path d="M919.176 236.794H814L832.671 207.584H900.506L919.176 236.794ZM821.436 232.675H911.687L898.259 211.704H834.918L821.436 232.675Z" fill="white"/>
<path d="M879.588 210.42L875.79 208.868C876.271 207.638 876.539 206.354 876.539 205.07C876.539 199.56 872.045 195.119 866.588 195.119C861.131 195.119 856.638 199.56 856.638 205.07C856.638 206.407 856.905 207.691 857.387 208.868L853.588 210.42C852.893 208.708 852.518 206.889 852.518 205.07C852.518 197.313 858.831 191 866.588 191C874.345 191 880.658 197.313 880.658 205.07C880.658 206.942 880.284 208.708 879.588 210.42Z" fill="white"/>
<path d="M889.004 255.411H879.428V260.119H889.004V255.411Z" fill="white"/>
<path d="M1171.45 261.438L1155.44 245.43L1145.13 255.801C1141.58 259.352 1136.84 261.325 1131.83 261.325C1126.81 261.325 1122.07 259.352 1118.52 255.801C1114.97 252.25 1113 247.516 1113 242.499C1113 237.482 1114.97 232.748 1118.52 229.197L1118.64 229.084C1122.19 225.533 1126.92 223.56 1131.94 223.56C1136.96 223.56 1141.69 225.533 1145.24 229.084L1155.5 239.342L1175.06 219.783L1178.1 222.827L1158.49 242.386L1174.5 258.394L1171.45 261.438ZM1131.94 227.9C1128.05 227.9 1124.44 229.422 1121.68 232.128L1121.57 232.24C1118.81 235.002 1117.34 238.61 1117.34 242.499C1117.34 246.388 1118.86 249.996 1121.57 252.758C1124.33 255.52 1127.94 256.985 1131.83 256.985C1135.72 256.985 1139.32 255.463 1142.08 252.758L1152.46 242.386L1142.14 232.128C1139.44 229.422 1135.77 227.9 1131.94 227.9Z" fill="white"/>
<path d="M1146.99 253.885L1143.94 250.841L1163.5 231.282L1149.92 217.641L1152.96 214.598L1166.55 228.238L1176.92 217.867C1184.25 210.539 1196.2 210.539 1203.52 217.867C1210.85 225.194 1210.85 237.144 1203.52 244.472L1203.41 244.584C1199.86 248.135 1195.13 250.108 1190.11 250.108C1185.09 250.108 1180.36 248.135 1176.81 244.584L1166.55 234.269L1146.99 253.885ZM1169.59 231.282L1179.85 241.484C1182.61 244.246 1186.22 245.712 1190.11 245.712C1194 245.712 1197.61 244.19 1200.37 241.484L1200.48 241.371C1206.12 235.735 1206.12 226.491 1200.48 220.854C1194.84 215.218 1185.6 215.218 1179.96 220.854L1169.59 231.282Z" fill="white"/>
<path d="M1177.71 273.895C1175.28 273.895 1173.03 272.937 1171.34 271.246C1169.65 269.555 1168.69 267.3 1168.69 264.876C1168.69 262.452 1169.65 260.198 1171.34 258.507C1173.03 256.816 1175.28 255.858 1177.71 255.858C1180.13 255.858 1182.39 256.816 1184.08 258.507C1185.77 260.198 1186.73 262.452 1186.73 264.876C1186.73 267.3 1185.77 269.555 1184.08 271.246C1182.39 272.937 1180.13 273.895 1177.71 273.895ZM1177.71 260.198C1176.47 260.198 1175.28 260.705 1174.38 261.551C1173.48 262.396 1173.03 263.636 1173.03 264.876C1173.03 266.116 1173.54 267.3 1174.38 268.202C1175.28 269.104 1176.47 269.555 1177.71 269.555C1178.95 269.555 1180.13 269.047 1181.03 268.202C1181.94 267.356 1182.39 266.116 1182.39 264.876C1182.39 263.636 1181.88 262.452 1181.03 261.551C1180.19 260.649 1179 260.198 1177.71 260.198Z" fill="white"/>
<path d="M1146.82 220.009C1144.4 220.009 1142.14 219.051 1140.45 217.36C1136.96 213.865 1136.96 208.116 1140.45 204.621C1143.94 201.126 1149.69 201.126 1153.19 204.621C1156.68 208.116 1156.68 213.865 1153.19 217.36C1151.5 219.107 1149.24 220.009 1146.82 220.009ZM1146.82 206.312C1145.64 206.312 1144.4 206.763 1143.49 207.665C1141.63 209.525 1141.63 212.456 1143.49 214.316C1144.4 215.218 1145.58 215.669 1146.82 215.669C1148.06 215.669 1149.24 215.161 1150.15 214.316C1152.01 212.456 1152.01 209.525 1150.15 207.665C1149.24 206.763 1148.06 206.312 1146.82 206.312Z" fill="white"/>
</svg>
