<svg width="1440" height="466" viewBox="0 0 1440 466" fill="none" xmlns="http://www.w3.org/2000/svg">
<rect width="1440" height="466" fill="white"/>
<path d="M1074.51 187.171C1076.78 186.423 1079.2 187.817 1079.68 190.156L1085.72 219.19C1085.83 219.727 1085.83 220.281 1085.72 220.818L1079.68 249.852C1079.2 252.191 1076.78 253.586 1074.51 252.837L1046.35 243.546C1045.83 243.374 1045.35 243.097 1044.94 242.732L1022.82 222.989C1021.03 221.398 1021.03 218.61 1022.82 217.02L1044.94 197.276C1045.35 196.911 1045.83 196.634 1046.35 196.462L1074.51 187.171Z" fill="#FF00F8"/>
<path d="M1074.51 187.171C1076.78 186.423 1079.2 187.817 1079.68 190.156L1085.72 219.19C1085.83 219.727 1085.83 220.281 1085.72 220.818L1079.68 249.852C1079.2 252.191 1076.78 253.586 1074.51 252.837L1046.35 243.546C1045.83 243.374 1045.35 243.097 1044.94 242.732L1022.82 222.989C1021.03 221.398 1021.03 218.61 1022.82 217.02L1044.94 197.276C1045.35 196.911 1045.83 196.634 1046.35 196.462L1074.51 187.171Z" fill="#00D5FF"/>
<path d="M596.852 252.911C591.257 252.911 585.623 251.728 580.343 249.363L579.871 249.165L579.674 248.692C572.818 233.553 576.088 215.458 587.829 203.709C599.57 191.961 617.655 188.689 632.784 195.548L633.257 195.746L633.454 196.219C640.31 211.358 637.039 229.414 625.298 241.162C617.655 248.85 607.332 252.911 596.852 252.911Z" fill="#ADFF00"/>
<path d="M576.914 254.039L615.171 215.769C615.709 215.23 615.709 214.357 615.171 213.818C614.632 213.279 613.759 213.279 613.221 213.817L574.964 252.087C574.426 252.626 574.426 253.499 574.964 254.038C575.502 254.577 576.376 254.577 576.914 254.039Z" fill="#71CB6A"/>
<path d="M623.289 227.206C623.289 227.968 622.671 228.586 621.909 228.586H603.752C602.096 228.586 600.752 227.243 600.752 225.586V206.783C600.752 206.022 601.37 205.404 602.131 205.404C602.893 205.404 603.51 206.022 603.51 206.783V222.826C603.51 224.483 604.854 225.826 606.51 225.826H621.909C622.671 225.826 623.289 226.444 623.289 227.206Z" fill="#71CB6A"/>
<path d="M612.572 237.969C612.572 238.731 611.954 239.349 611.192 239.349H593.036C591.379 239.349 590.036 238.006 590.036 236.349V217.546C590.036 216.785 590.653 216.167 591.415 216.167C592.176 216.167 592.794 216.785 592.794 217.546V233.589C592.794 235.246 594.137 236.589 595.794 236.589H611.192C611.954 236.589 612.572 237.207 612.572 237.969Z" fill="#71CB6A"/>
<path d="M158.075 229.119C161.543 216.177 153.878 202.879 140.956 199.416C128.033 195.954 114.746 203.638 111.279 216.579C107.811 229.521 115.476 242.819 128.398 246.282C141.321 249.744 154.608 242.06 158.075 229.119Z" fill="#FF0044"/>
<path d="M158.075 229.119C161.543 216.177 153.878 202.879 140.956 199.416C128.033 195.954 114.746 203.638 111.279 216.579C107.811 229.521 115.476 242.819 128.398 246.282C141.321 249.744 154.608 242.06 158.075 229.119Z" fill="#FEC700"/>
<path d="M153.303 212.213C158.129 217.038 165.953 217.038 170.779 212.213C175.604 207.387 175.604 199.563 170.779 194.738C165.953 189.912 158.129 189.912 153.303 194.738C148.478 199.563 148.478 207.387 153.303 212.213Z" fill="#FF0044"/>
<path d="M153.303 212.213C158.129 217.038 165.953 217.038 170.779 212.213C175.604 207.387 175.604 199.563 170.779 194.738C165.953 189.912 158.129 189.912 153.303 194.738C148.478 199.563 148.478 207.387 153.303 212.213Z" fill="#FEC700"/>
<path d="M109 85H444" stroke="#BBBBBB" stroke-width="2"/>
<path d="M991 85H1326" stroke="#BBBBBB" stroke-width="2"/>
</svg>
