<svg width="1439" height="805" viewBox="0 0 1439 805" fill="none" xmlns="http://www.w3.org/2000/svg">
<rect width="1439" height="805" fill="white"/>
<rect x="89" y="26" width="14" height="57" fill="#FFC700"/>
<path fill-rule="evenodd" clip-rule="evenodd" d="M1114 155.556C1118.24 155.556 1121.65 159.012 1121.65 163.302C1121.65 167.592 1118.24 171.048 1114 171.048C1109.76 171.048 1106.35 167.592 1106.35 163.302C1106.35 159.012 1109.76 155.556 1114 155.556ZM1118.89 141.562C1115.69 140.813 1112.31 140.813 1109.11 141.562L1108.04 146.518C1106.89 146.935 1105.82 147.476 1104.79 148.101L1100.31 145.852C1097.72 147.976 1095.62 150.6 1094.18 153.64L1097.35 157.596C1096.98 158.762 1096.69 159.97 1096.52 161.178L1092 163.302C1092 166.634 1092.74 169.965 1094.18 172.964L1099.2 172.922C1099.85 173.964 1100.59 174.921 1101.46 175.796L1100.31 180.71C1102.9 182.793 1105.9 184.25 1109.11 185L1112.19 181.002C1113.38 181.127 1114.62 181.127 1115.81 181.002L1118.89 185C1122.1 184.25 1125.14 182.793 1127.69 180.71L1126.54 175.796C1127.41 174.921 1128.15 173.964 1128.8 172.922L1133.82 172.964C1135.26 169.965 1136 166.634 1136 163.302L1131.48 161.136C1131.31 159.929 1131.07 158.721 1130.65 157.555L1133.82 153.598C1132.38 150.6 1130.28 147.934 1127.73 145.852L1123.21 148.101C1122.18 147.476 1121.07 146.935 1119.96 146.518L1118.89 141.562Z" fill="#FF5784"/>
<path fill-rule="evenodd" clip-rule="evenodd" d="M1145 150.939C1147.31 150.939 1149.17 152.825 1149.17 155.165C1149.17 157.504 1147.31 159.39 1145 159.39C1142.69 159.39 1140.83 157.504 1140.83 155.165C1140.83 152.825 1142.69 150.939 1145 150.939ZM1147.67 143.307C1145.92 142.898 1144.08 142.898 1142.33 143.307L1141.75 146.01C1141.12 146.237 1140.54 146.532 1139.98 146.873L1137.53 145.646C1136.12 146.805 1134.97 148.236 1134.19 149.894L1135.92 152.053C1135.71 152.689 1135.56 153.347 1135.47 154.006L1133 155.165C1133 156.982 1133.4 158.799 1134.19 160.435L1136.93 160.412C1137.28 160.98 1137.69 161.503 1138.16 161.98L1137.53 164.66C1138.94 165.796 1140.58 166.591 1142.33 167L1144.01 164.819C1144.66 164.887 1145.34 164.887 1145.99 164.819L1147.67 167C1149.42 166.591 1151.08 165.796 1152.47 164.66L1151.84 161.98C1152.31 161.503 1152.72 160.98 1153.07 160.412L1155.81 160.435C1156.6 158.799 1157 156.982 1157 155.165L1154.53 153.983C1154.44 153.325 1154.31 152.666 1154.08 152.03L1155.81 149.872C1155.03 148.236 1153.88 146.782 1152.49 145.646L1150.02 146.873C1149.46 146.532 1148.86 146.237 1148.25 146.01L1147.67 143.307Z" fill="#3D248A"/>
<ellipse cx="1123.5" cy="195.5" rx="21.5" ry="3.5" fill="#E1E1E1"/>
<path d="M157.5 182C164.383 177.457 169 169.081 169 159.5C169 149.919 164.383 141.543 157.5 137C150.617 141.543 146 149.919 146 159.5C146 169.081 150.617 177.457 157.5 182Z" fill="#FF5784"/>
<path d="M157.395 183.546C151.003 184.421 143.48 181.773 137.662 175.955C131.844 170.137 129.196 162.613 130.071 156.222C136.463 155.346 143.987 157.995 149.804 163.812C155.622 169.63 158.271 177.154 157.395 183.546Z" fill="#FFC700"/>
<path d="M175.631 175.248C170.234 180.645 163.379 183.165 157.509 182.642C156.985 176.772 159.505 169.917 164.903 164.52C170.3 159.122 177.155 156.602 183.025 157.126C183.548 162.996 181.028 169.85 175.631 175.248Z" stroke="black" stroke-width="2"/>
<ellipse cx="157.5" cy="195.5" rx="21.5" ry="3.5" fill="#E1E1E1"/>
<ellipse cx="807.5" cy="195.5" rx="21.5" ry="3.5" fill="#E1E1E1"/>
<path d="M805.619 142.217C806.254 140.455 808.746 140.455 809.381 142.217L813.185 152.765C813.463 153.536 814.183 154.059 815.002 154.085L826.208 154.443C828.081 154.503 828.851 156.873 827.371 158.022L818.516 164.898C817.868 165.401 817.593 166.248 817.821 167.035L820.944 177.803C821.466 179.602 819.449 181.067 817.9 180.015L808.623 173.718C807.945 173.257 807.055 173.257 806.377 173.718L797.1 180.015C795.551 181.067 793.534 179.602 794.056 177.803L797.179 167.035C797.407 166.248 797.132 165.401 796.484 164.898L787.629 158.022C786.149 156.873 786.919 154.503 788.792 154.443L799.998 154.085C800.817 154.059 801.537 153.536 801.815 152.765L805.619 142.217Z" fill="#FFC700"/>
<path d="M835 146L841 140M835 174.5L841 180.5M835 161H853.5" stroke="#3D248A" stroke-width="2"/>
<path d="M780.5 146L774.5 140M780.5 174.5L774.5 180.5M780.5 161H762" stroke="#3D248A" stroke-width="2"/>
<ellipse cx="475.5" cy="195.5" rx="21.5" ry="3.5" fill="#E1E1E1"/>
<path d="M495.798 162.093C496.496 167.087 495.374 172.165 492.637 176.4C489.9 180.634 485.73 183.743 480.89 185.157L478.712 177.702C481.762 176.811 484.389 174.852 486.114 172.184C487.839 169.515 488.546 166.315 488.106 163.168L495.798 162.093Z" fill="#3D248A"/>
<path d="M481.339 185.02C477.131 186.353 472.61 186.325 468.419 184.942C464.227 183.559 460.578 180.89 457.989 177.314C455.401 173.739 454.005 169.439 454 165.025C453.995 160.611 455.381 156.307 457.96 152.726C460.54 149.144 464.183 146.467 468.371 145.074C472.56 143.68 477.081 143.642 481.292 144.965C485.503 146.287 489.19 148.903 491.83 152.44C494.47 155.978 495.928 160.257 495.997 164.671L488.096 164.795C488.053 162.042 487.143 159.373 485.497 157.167C483.85 154.961 481.55 153.329 478.924 152.504C476.298 151.68 473.478 151.703 470.866 152.572C468.254 153.441 465.982 155.111 464.373 157.345C462.764 159.579 461.899 162.263 461.903 165.015C461.906 167.768 462.777 170.45 464.391 172.68C466.005 174.91 468.281 176.575 470.895 177.437C473.509 178.3 476.329 178.317 478.954 177.486L481.339 185.02Z" fill="#FFC700"/>
<line x1="453.293" y1="187.293" x2="497.754" y2="142.831" stroke="#3D248A" stroke-width="2"/>
</svg>
