<svg width="1440" height="1020" viewBox="0 0 1440 1020" fill="none" xmlns="http://www.w3.org/2000/svg">
<rect x="1" width="1439" height="957" fill="#3D248A"/>
<path d="M1125.22 283.665L1114.04 358.358L1065.79 315.824L1125.22 283.665Z" fill="#00D5FF"/>
<path d="M1366.78 417.281L1369.57 558.54L1267.25 495.219L1366.78 417.281Z" fill="#FFC700"/>
<path d="M311.965 795.307L453.072 788.201L392.908 892.41L311.965 795.307Z" fill="#00D5FF"/>
<path d="M1107 932.752L1040 983.306L1040 900.938L1107 932.752Z" fill="#E1E1E1"/>
<path d="M1155.42 109.052L1349.45 158.854L1231.82 292.359L1155.42 109.052Z" stroke="#E1E1E1" stroke-width="3"/>
<path d="M26.4686 303.646L98.9599 318.033L42.5327 387.387L26.4686 303.646Z" fill="#FFC700"/>
<path d="M809.909 674.141L825.863 637.159L844.562 667.83L809.909 674.141Z" fill="#FF5784"/>
<path d="M352.659 240.432L410.313 135.131L457.255 231.363L352.659 240.432Z" fill="#FF5784"/>
</svg>
