<svg width="1440" height="620" viewBox="0 0 1440 620" fill="none" xmlns="http://www.w3.org/2000/svg">
<rect x="-1" width="1443" height="620" fill="#FF5784"/>
<rect x="-1" width="1443" height="620" fill="white"/>
<path d="M383.995 280.905C384.16 280.116 384.646 279.407 385.411 278.975C386.176 278.543 387.014 278.406 387.912 278.629C392.849 279.858 402.211 282.188 407.213 283.433C408.046 283.641 408.811 284.177 409.329 284.928C409.782 285.663 410.016 286.482 409.837 287.337C408.104 295.619 403.332 318.429 401.599 326.711C401.434 327.5 400.949 328.209 400.184 328.641C399.483 329.089 398.58 329.21 397.683 328.987C392.745 327.758 383.383 325.428 378.381 324.183C377.548 323.975 376.783 323.439 376.265 322.688C375.812 321.953 375.579 321.134 375.757 320.279C377.504 311.931 382.276 289.122 383.995 280.905Z" fill="#3D248A"/>
<path d="M388.287 284.331C388.392 283.824 388.698 283.403 389.146 283.139C389.595 282.876 390.134 282.805 390.674 282.94C391.982 283.267 393.706 283.699 395.015 284.027C395.534 284.157 396.012 284.483 396.312 284.934C396.611 285.384 396.718 285.92 396.615 286.416C396.351 287.684 396.008 289.332 395.745 290.6C395.639 291.107 395.333 291.528 394.885 291.791C394.437 292.055 393.897 292.126 393.357 291.991C392.049 291.663 390.325 291.232 389.017 290.904C388.497 290.774 388.019 290.448 387.72 289.997C387.42 289.546 387.313 289.01 387.416 288.515C387.68 287.247 388.023 285.599 388.287 284.331Z" fill="white"/>
<path d="M397.876 261.109C397.982 260.601 398.288 260.181 398.736 259.917C399.184 259.653 399.723 259.582 400.263 259.718C401.572 260.045 403.296 260.477 404.604 260.804C405.123 260.934 405.602 261.26 405.901 261.711C406.201 262.162 406.308 262.698 406.205 263.194C405.941 264.462 405.598 266.11 405.334 267.378C405.229 267.885 404.923 268.306 404.474 268.569C404.026 268.833 403.487 268.904 402.947 268.769C401.639 268.441 399.915 268.01 398.606 267.682C398.087 267.552 397.609 267.226 397.309 266.775C397.01 266.324 396.903 265.788 397.006 265.292C397.27 264.025 397.615 262.365 397.876 261.109Z" fill="#00D5FF"/>
<path d="M385.845 297.056C385.647 298.008 385.38 299.291 385.182 300.242C385.063 300.813 385.188 301.419 385.523 301.921C385.856 302.431 386.391 302.8 386.988 302.949C387.972 303.196 389.314 303.532 390.298 303.778C390.895 303.928 391.523 303.85 392.025 303.549C392.526 303.248 392.879 302.762 392.996 302.199C393.194 301.247 393.461 299.965 393.659 299.013C393.777 298.442 393.652 297.836 393.318 297.334C392.984 296.824 392.449 296.455 391.853 296.306C390.869 296.059 389.527 295.723 388.542 295.477C387.946 295.327 387.318 295.405 386.816 295.706C386.316 295.999 385.963 296.485 385.845 297.056ZM387.694 297.519C387.714 297.42 387.78 297.332 387.87 297.276C387.96 297.22 388.073 297.205 388.177 297.231C389.162 297.478 390.504 297.814 391.488 298.06C391.592 298.086 391.688 298.154 391.747 298.247C391.806 298.34 391.83 298.451 391.809 298.55C391.611 299.502 391.345 300.784 391.147 301.736C391.126 301.835 391.061 301.923 390.97 301.979C390.88 302.035 390.767 302.05 390.663 302.024C389.679 301.778 388.337 301.441 387.353 301.195C387.248 301.169 387.152 301.101 387.093 301.008C387.034 300.915 387.01 300.805 387.031 300.705L387.694 297.519Z" fill="white"/>
<path d="M403.422 276.578C403.59 275.77 404.064 275.084 404.812 274.674C405.52 274.254 406.41 274.155 407.237 274.362C409.992 275.052 413.927 276.038 416.682 276.728C417.508 276.935 418.267 277.47 418.743 278.163C419.216 278.879 419.411 279.732 419.243 280.54C418.693 283.183 417.903 286.983 417.358 289.604C417.19 290.412 416.716 291.098 415.968 291.508C415.259 291.928 414.369 292.027 413.543 291.82C410.788 291.13 406.853 290.144 404.098 289.454C403.271 289.247 402.513 288.712 402.036 288.018C401.559 287.325 401.369 286.45 401.537 285.642C402.082 283.021 402.872 279.22 403.422 276.578Z" fill="#C2DE0B"/>
<path d="M402.478 276.342C401.929 278.984 401.138 282.784 400.593 285.405C400.38 286.431 400.604 287.544 401.241 288.462C401.878 289.38 402.815 290.051 403.917 290.327C406.671 291.017 410.607 292.003 413.361 292.693C414.463 292.969 415.573 292.81 416.509 292.286C417.446 291.763 418.088 290.867 418.302 289.84C418.851 287.198 419.642 283.398 420.187 280.777C420.4 279.751 420.176 278.638 419.539 277.72C418.941 276.812 417.965 276.131 416.863 275.855C414.109 275.165 410.173 274.179 407.419 273.489C406.317 273.213 405.207 273.372 404.271 273.896C403.329 274.441 402.692 275.315 402.478 276.342ZM404.328 276.805C404.446 276.237 404.796 275.75 405.31 275.466C405.825 275.181 406.426 275.079 407.016 275.227C409.771 275.917 413.706 276.902 416.461 277.592C417.051 277.74 417.596 278.106 417.903 278.62C418.254 279.121 418.377 279.726 418.259 280.294L416.373 289.357C416.255 289.925 415.906 290.412 415.391 290.697C414.876 290.981 414.276 291.083 413.685 290.936C410.931 290.246 406.995 289.26 404.241 288.57C403.65 288.422 403.106 288.056 402.798 287.543C402.447 287.041 402.325 286.436 402.443 285.868L404.328 276.805Z" fill="#C2DE0B"/>
<path d="M259.66 407.653L269.858 439.524C270.627 441.952 271.283 444.365 271.582 446.887C271.88 449.409 272.078 451.963 271.906 454.578L268.414 509.729L267.269 519.923L288.615 520.581L289.761 510.387L298.421 455.389C299.073 451.293 299.241 447.243 299.129 443.177C299.017 439.111 298.422 435.091 297.559 431.102L290.516 398.261L286.675 383.912L255.806 393.257L259.66 407.653Z" fill="#3D248A"/>
<path d="M295.901 399.461L330.4 449.44C331.565 451.17 332.533 452.97 332.828 454.897C333.153 456.89 333.214 458.978 332.567 460.86L318.984 501.221L315.415 510.482L335.136 518.857L338.705 509.596L355.615 470.648C357.878 465.462 358.552 459.735 358.086 454.033C357.638 448.287 355.642 442.598 352.523 437.312L321.936 385.199L313.496 371.966L287.395 386.252L295.901 399.461Z" fill="#3D248A"/>
<path d="M285.738 539.668L295.26 542.937L299.993 544.075L297.483 553.445L292.751 552.306L277.18 550.052L272.309 548.865L271.841 534.852L272.033 527.711L286.532 527.818L286.34 534.959L285.738 539.668Z" fill="#C2DE0B"/>
<path d="M299.561 556.682L273.608 551.807C272.748 551.663 271.927 552.192 271.732 553.038C271.537 553.884 272.069 554.676 272.929 554.82L298.882 559.695C299.742 559.839 300.563 559.31 300.758 558.464C300.956 557.669 300.421 556.826 299.561 556.682Z" fill="#3D248A"/>
<path d="M286.319 531.566C285.176 531.749 284.012 531.591 282.865 531.726C282.018 531.839 281.36 532.624 281.458 533.451C281.555 534.278 282.344 534.906 283.191 534.793C284.337 534.658 285.498 534.767 286.695 534.628C287.542 534.516 288.15 533.734 288.052 532.907C287.952 532.032 287.166 531.453 286.319 531.566Z" fill="#3D248A"/>
<path d="M285.731 537.013C284.544 537.348 283.411 537.729 282.224 538.064C281.382 538.275 280.877 539.1 281.074 539.921C281.271 540.743 282.103 541.221 282.945 541.011C284.134 540.724 285.315 540.291 286.551 539.952C287.393 539.742 287.896 538.867 287.649 538.05C287.401 537.232 286.57 536.753 285.731 537.013Z" fill="#3D248A"/>
<path d="M322.513 536.444L330.866 542.734L335.15 545.405L330.163 553.326L325.879 550.655L311.379 543.263L306.974 540.5L310.335 527.222L312.466 520.601L326.511 525.619L324.379 532.24L322.513 536.444Z" fill="#C2DE0B"/>
<path d="M330.619 557.161L307.032 544.068C306.246 543.65 305.314 543.868 304.897 544.586C304.48 545.304 304.776 546.213 305.562 546.63L329.149 559.724C329.936 560.142 330.868 559.924 331.285 559.206C331.69 558.536 331.406 557.579 330.619 557.161Z" fill="#3D248A"/>
<path d="M325.505 528.971C324.354 528.759 323.277 528.224 322.137 527.966C321.291 527.788 320.445 528.297 320.315 529.097C320.184 529.897 320.773 530.743 321.619 530.922C322.759 531.179 323.847 531.669 325.036 531.939C325.882 532.118 326.679 531.596 326.809 530.796C326.95 529.949 326.4 529.163 325.505 528.971Z" fill="#3D248A"/>
<path d="M323.266 533.978C322.031 533.892 320.835 533.865 319.6 533.779C318.731 533.692 318.02 534.29 317.988 535.12C317.955 535.95 318.627 536.674 319.496 536.76C320.72 536.893 321.976 536.887 323.26 536.986C324.129 537.073 324.851 536.429 324.834 535.585C324.866 534.755 324.145 534.018 323.266 533.978Z" fill="#3D248A"/>
<path d="M326.301 304.737C315.623 285.575 290.599 279.653 270.356 291.497C250.113 303.342 242.373 328.433 253.051 347.596L326.301 304.737Z" fill="#C2DE0B"/>
<path d="M373.814 276.848L363.688 273.325C363.177 273.158 362.684 273.425 362.458 273.896C362.26 274.411 362.504 274.885 362.967 275.083L373.093 278.606C373.604 278.773 374.097 278.506 374.323 278.035C374.521 277.52 374.295 276.971 373.814 276.848Z" fill="#3D248A"/>
<path d="M380.092 268.514L365.31 254.04C364.95 253.701 364.348 253.716 363.982 254.088C363.615 254.461 363.597 255.052 363.957 255.392L378.739 269.866C379.099 270.205 379.701 270.19 380.067 269.817C380.463 269.489 380.481 268.898 380.092 268.514Z" fill="#3D248A"/>
<path d="M388.542 261.764L385.238 250.368C385.115 249.873 384.54 249.616 384.059 249.809C383.548 249.958 383.255 250.539 383.425 251.003L386.728 262.399C386.851 262.894 387.426 263.152 387.907 262.958C388.388 262.765 388.664 262.259 388.542 261.764Z" fill="#3D248A"/>
<path d="M316.72 265.305C317.344 273.469 311.922 281.03 303.945 278.135C302.605 277.657 301.372 276.651 300.338 275.675C297.855 273.31 296.862 270.395 296.494 267.239C296.076 263.945 296.349 260.381 296.402 256.835C296.4 256.316 295.985 255.902 295.478 255.85C294.97 255.799 294.549 256.188 294.551 256.707C294.523 260.322 294.276 263.955 294.674 267.297C295.083 270.875 296.292 274.173 299.119 276.864C300.338 278.036 301.821 279.21 303.43 279.807C312.638 283.189 319.295 274.792 318.566 265.315C318.499 264.825 318.084 264.411 317.557 264.409C317.075 264.425 316.654 264.815 316.72 265.305Z" fill="#3D248A"/>
<path d="M296.761 256.017C295.083 255.194 293.191 254.032 292.509 252.257C291.401 249.803 292.645 246.505 295.663 246.609C297.046 246.647 298.196 247.482 299.429 248.108C299.948 248.337 300.46 248.154 300.702 247.77C300.898 247.283 300.668 246.772 300.25 246.506C298.794 245.782 297.348 244.816 295.714 244.749C291.415 244.571 289.36 249.23 290.901 252.775C291.842 254.992 294.02 256.526 296.219 257.578C296.738 257.807 297.249 257.624 297.417 257.207C297.483 256.827 297.281 256.246 296.761 256.017Z" fill="#3D248A"/>
<path d="M297.846 241.858C296.411 245.42 305.052 259.41 318.292 264.538C330.291 269.118 339.259 252.182 326.98 242.959C312.513 232.123 297.846 241.858 297.846 241.858Z" fill="#3D248A"/>
<path d="M301.144 247.979C299.989 247.387 298.648 247.04 297.381 246.725C294.099 246.01 290.588 247.805 291.836 251.622C292.909 254.791 300.336 259.052 295.711 262.315C292.531 264.584 287.894 262.045 285.04 260.05C278.245 255.088 275.297 246.846 276.927 239.565C278.556 232.284 287.589 228.029 295.198 229.677C301.763 231.108 308.743 236.478 307.78 243.401L301.144 247.979Z" fill="#3D248A"/>
<path d="M351.28 320.587C342.176 325.938 331.536 331.595 315.892 338.431C309.189 341.412 301.655 341.38 295.461 338.42C286.752 334.317 274.692 327.868 268.014 321.142C265.853 318.954 264.227 316.753 263.543 314.637C262.893 312.657 263.081 310.647 264.3 308.769C269.079 301.792 275.805 301.049 282.706 303.149C289.926 305.3 297.213 310.472 302.727 315.006C309.226 320.409 318.378 321.993 326.984 319.25C337.146 315.977 349.025 312.201 349.025 312.201C349.526 312.054 349.854 311.523 349.664 311.072C349.546 310.6 349.015 310.322 348.531 310.536C348.531 310.536 336.652 314.313 326.49 317.586C318.528 320.14 310.016 318.657 304.009 313.689C298.373 308.973 290.767 303.75 283.369 301.506C275.652 299.212 268.123 300.119 262.708 307.933C259.635 312.527 261.685 317.644 266.517 322.523C273.388 329.409 285.626 335.951 294.511 340.147C301.219 343.317 309.359 343.316 316.563 340.188C332.35 333.31 343.045 327.565 352.237 322.261C352.704 321.979 352.872 321.423 352.611 320.993C352.315 320.428 351.747 320.305 351.28 320.587Z" fill="#3D248A"/>
<path d="M348.834 312.612C348.858 307.01 350.95 301.418 355.517 297.614C356.507 296.834 358.261 295.862 359.869 295.594C360.673 295.459 361.396 295.468 361.935 295.864C362.294 296.127 362.472 296.519 362.547 297.153C362.718 298.322 362.09 299.106 361.303 299.659C360.212 300.423 358.803 300.982 357.734 301.645C354.668 303.451 352.657 306.408 352.509 309.863C352.505 310.382 352.883 310.804 353.406 310.782C353.928 310.759 354.372 310.361 354.377 309.843C354.499 307.007 356.184 304.622 358.605 303.183C359.674 302.519 361.144 301.918 362.295 301.111C363.688 300.134 364.642 298.778 364.337 296.758C364.205 295.647 363.689 294.892 363.11 294.438C362.492 293.926 361.711 293.701 360.828 293.719C358.66 293.692 355.778 295.111 354.343 296.289C349.331 300.491 346.974 306.612 346.986 312.791C346.982 313.31 347.42 313.689 347.942 313.667C348.425 313.587 348.83 313.131 348.834 312.612Z" fill="#3D248A"/>
<path d="M354.471 310.512C357.825 307.385 362.469 304.302 367.081 305.386C368.168 305.66 369.356 305.949 370.096 306.899C371.055 308.039 371.221 309.994 369.582 310.625C369.015 310.849 368.27 310.681 367.586 310.47C366.66 310.17 365.734 309.869 364.949 309.642C363.096 309.301 361.114 309.827 359.315 310.224C358.831 310.305 358.463 310.821 358.52 311.3C358.577 311.778 359.079 312.117 359.564 312.036C361.201 311.665 362.859 311.194 364.511 311.503C365.418 311.644 366.503 312.179 367.55 312.394C368.497 312.594 369.324 312.618 370.113 312.324C373.108 311.174 373.196 307.747 371.437 305.7C370.437 304.501 369.029 304.021 367.498 303.626C362.303 302.347 356.991 305.638 353.129 309.208C352.743 309.565 352.718 310.187 353.018 310.494C353.52 310.833 354.085 310.869 354.471 310.512Z" fill="#3D248A"/>
<path d="M359.31 312.069C362.252 312.527 364.383 312.858 366.006 315.628C366.226 316.081 366.465 316.695 366.44 317.32C366.457 317.742 366.373 318.148 365.903 318.39C365.557 318.546 365.273 318.397 364.99 318.248C364.362 317.993 363.817 317.594 363.331 317.413C361.549 316.664 359.659 316.685 357.708 316.748C357.18 316.771 356.77 317.232 356.766 317.755C356.762 318.279 357.206 318.662 357.734 318.64C359.381 318.529 361.006 318.52 362.545 319.178C363.133 319.375 363.86 319.907 364.589 320.178C365.318 320.449 366.111 320.415 366.764 320.044C367.601 319.545 368.074 318.78 368.203 317.909C368.374 316.835 368.059 315.58 367.598 314.774C365.674 311.434 363.22 310.895 359.669 310.343C359.161 310.264 358.671 310.607 358.566 311.115C358.481 311.521 358.802 311.99 359.31 312.069Z" fill="#3D248A"/>
<path d="M321.488 382.127L282.665 405.964L254.577 392.164C250.014 376.751 254.398 368.237 262.985 359.814L310.127 358.47L321.488 382.127Z" fill="#3D248A"/>
<path d="M295.645 259.292C297.796 265.124 294.274 271.638 289.231 274.476C286.518 275.998 282.108 276.769 279.545 273.946C277.257 271.432 279.999 267.107 281.512 265.336C281.906 264.853 282.514 264.09 283.183 263.916C283.417 263.832 282.8 264.122 282.566 264.207C282.332 264.291 282.066 264.455 281.833 264.539C281.216 264.829 280.748 264.998 280.078 265.171C278.154 265.728 275.211 265.834 273.516 264.333C271.682 262.677 272.569 260.723 274.177 259.463C274.741 259.055 275.39 258.685 276.039 258.316C276.39 258.189 276.507 258.147 276.942 258.058C277.059 258.016 277.516 258.124 277.378 257.969C274.854 256.29 269.141 255.827 270.066 251.543C270.56 249.322 273.303 248.47 275.374 248.542C277.446 248.613 279.515 249.434 281.531 250.139C283.632 250.88 285.819 251.66 287.642 252.842L295.645 259.292Z" fill="#3D248A"/>
<path d="M318.875 263.255C321.523 263.755 324.243 265.333 326.282 267.086C327.328 268.022 328.503 269.395 328.24 270.801C327.657 274.252 322.278 272.454 320.281 271.1C320.055 270.905 320.701 271.57 321.014 271.803C321.608 272.349 321.92 272.582 322.481 273.209C324.088 274.772 326.318 277.561 324.68 279.597C323.562 281.101 320.821 279.324 319.742 278.469C319.289 278.079 318.836 277.689 318.469 277.338C318.329 277.181 318.168 276.825 318.135 276.905C318.124 277.186 318.521 278.216 318.509 278.496C318.841 279.688 318.837 281.208 318.088 282.304C317.404 283.239 316.302 282.944 315.396 282.165C314.231 281.271 313.35 279.172 313.375 277.852C313.377 277.093 314.049 276.438 314.451 275.949C314.983 275.137 315.375 274.169 315.82 273.319C317.234 270.329 318.12 266.63 317.881 263.197L318.875 263.255Z" fill="#3D248A"/>
<path d="M354.245 327.967C362.078 328.259 369.695 328.155 373.122 327.441C373.638 327.35 373.938 326.863 373.859 326.349C373.781 325.835 373.301 325.548 372.785 325.639C369.358 326.353 361.936 326.407 354.298 326.065C353.794 326.03 353.311 326.441 353.264 326.946C353.399 327.527 353.798 328 354.245 327.967Z" fill="#3D248A"/>
<path d="M391.971 338.143C391.855 338.172 391.332 338.243 390.865 338.361C389.059 338.754 385.725 339.77 381.407 340.853C372.655 343.05 360.013 345.805 348.058 346.122C339.917 346.317 332.052 345.488 325.838 342.635C325.388 342.39 325.182 341.845 325.376 341.379C325.57 340.913 326.098 340.721 326.61 340.891C332.596 343.682 340.177 344.403 348.03 344.221C359.929 343.858 372.454 341.133 381.029 339.04C386.047 337.781 389.67 336.753 391.243 336.418C391.826 336.271 392.171 336.304 392.343 336.32C397.884 337.494 402.663 335.162 405.674 331.126C410.34 324.947 411.036 314.755 404.258 306.558C403.93 306.163 403.958 305.56 404.374 305.276C404.736 304.947 405.308 305.042 405.636 305.437C413.014 314.378 412.274 325.535 407.119 332.314C403.625 336.828 398.141 339.457 391.971 338.143Z" fill="#3D248A"/>
<path d="M281.089 350.002C281.149 349.544 281.149 349.086 281.21 348.653C281.27 346.948 281.27 345.242 281.392 343.537C281.452 342.341 281.573 341.17 281.392 339.974C281.331 339.464 281.634 338.981 282.119 338.904C282.603 338.828 283.088 339.159 283.209 339.668C283.452 340.992 283.33 342.315 283.209 343.639C283.088 345.344 283.149 347.05 283.027 348.755C283.027 349.315 282.967 349.849 282.906 350.409C282.906 350.613 282.906 350.664 282.906 350.791C282.967 350.919 282.967 351.071 283.027 351.148C283.027 351.377 282.967 351.58 282.846 351.758C282.724 351.937 282.482 352.217 281.937 352.166C280.664 352.038 279.029 350.995 278.241 350.613C275.575 349.289 273.091 347.864 270.607 346.464C269.88 346.057 269.152 345.701 268.425 345.293C268.304 345.751 268.304 346.235 268.244 346.693C268.183 347.457 268.122 348.195 268.062 348.959C267.941 349.926 267.698 350.893 267.577 351.86C267.517 352.369 267.092 352.726 266.547 352.675C266.062 352.624 265.699 352.166 265.699 351.657C265.82 350.664 266.062 349.671 266.184 348.704C266.305 347.991 266.305 347.253 266.365 346.541C266.426 345.675 266.486 344.81 266.911 343.97C266.971 343.741 267.153 343.41 267.335 343.282C267.517 343.181 267.698 343.079 268.062 343.104C268.183 343.104 268.425 343.181 268.668 343.308C268.849 343.41 269.213 343.639 269.274 343.69C270.001 344.097 270.728 344.479 271.455 344.861C273.939 346.235 276.363 347.66 279.028 348.984C279.453 349.137 280.301 349.671 281.089 350.002ZM266.85 343.919C266.789 343.995 266.789 344.122 266.789 344.122C266.789 344.122 266.85 344.046 266.85 343.919Z" fill="#3D248A"/>
<path d="M341.623 175.578L338.524 209.216L348.812 209.176L358.245 226.964L360.114 194.649L347.732 198.131L341.623 175.578Z" fill="#FFC700"/>
<path d="M397.455 306.21C397.008 305.493 396.561 304.597 396.292 303.79C395.934 302.626 395.934 301.371 396.471 300.475C396.918 299.758 397.366 299.399 397.992 299.22C398.529 299.041 399.065 299.131 399.692 299.31C401.033 299.758 402.375 301.102 403.091 301.909C403.449 302.267 404.611 303.701 404.969 304.059C405.327 304.418 405.417 304.955 405.148 305.404C404.79 305.762 404.254 305.852 403.806 305.583C403.359 305.224 402.017 303.701 401.659 303.253C401.212 302.715 400.407 301.909 399.513 301.371C399.155 301.192 398.797 301.013 398.529 301.102C398.35 301.192 398.26 301.281 398.081 301.461C397.813 301.998 397.902 302.626 398.081 303.342C398.439 304.687 399.334 305.941 399.96 306.748C400.318 307.285 400.675 307.733 401.033 308.181C401.123 308.361 401.391 308.63 401.57 308.719C401.749 308.898 401.749 309.167 401.749 309.257C401.749 309.526 401.659 309.705 401.57 309.884C401.481 310.063 401.212 310.243 400.854 310.332C400.675 310.332 400.407 310.332 400.049 310.153C399.692 309.974 399.155 309.346 398.976 309.257C398.26 308.719 397.545 308.092 396.65 308.002C395.934 307.913 395.398 307.913 395.219 308.271C394.95 308.63 395.04 309.167 395.308 309.795C395.845 311.049 396.65 311.945 397.634 312.841C398.708 313.917 399.781 314.902 400.586 316.157C400.854 316.515 400.765 316.784 400.675 316.964C400.586 317.322 400.318 317.591 399.781 317.591C399.692 317.591 399.602 317.591 399.513 317.501C399.423 317.501 399.155 317.322 399.155 317.322C398.976 317.232 398.797 317.143 398.708 317.143C398.26 316.874 397.724 316.695 397.276 316.515C396.65 316.247 395.577 315.978 394.682 315.978C394.056 315.978 393.34 316.067 393.161 316.784C393.072 316.964 393.161 317.053 393.161 317.232C393.251 317.501 393.43 317.77 393.519 318.039C394.324 319.383 395.934 320.369 397.187 321.086C397.724 321.444 398.35 321.713 398.976 321.892C399.513 321.982 399.781 322.519 399.602 323.057C399.513 323.595 398.976 323.864 398.439 323.684C397.634 323.505 396.918 323.147 396.203 322.788C394.593 321.892 392.714 320.638 391.82 319.025C391.372 318.218 390.925 317.143 391.283 316.247C391.73 315.082 392.625 314.544 393.788 314.365C394.682 314.186 395.666 314.365 396.561 314.544L396.292 314.275C395.219 313.2 394.145 312.035 393.609 310.601C393.072 309.167 393.161 308.002 393.788 307.285C394.324 306.568 395.487 306.12 397.008 306.389C397.097 306.12 397.276 306.21 397.455 306.21Z" fill="white"/>
<path d="M409.973 491.127L389.738 508.565L384.464 486.945L409.973 491.127Z" fill="#FFC700"/>
<path d="M222.469 409.891L201.276 396.52L221.81 384.466L222.469 409.891Z" fill="#3D248A"/>
<path d="M211.961 293.125C212.314 292.884 212.801 292.859 213.213 293.1C213.624 293.341 213.851 293.783 213.827 294.216L213.297 301.754L218.092 308.034C218.362 308.398 218.42 308.88 218.203 309.269C217.986 309.658 217.551 309.851 217.107 309.798L209.388 308.761L203.314 313.057C202.961 313.298 202.474 313.323 202.063 313.082C201.651 312.842 201.425 312.399 201.448 311.966L201.978 304.428L197.183 298.148C196.913 297.784 196.855 297.302 197.072 296.913C197.289 296.524 197.724 296.331 198.168 296.384L205.888 297.421L211.961 293.125Z" fill="#9C63FF"/>
<path d="M205.59 296.455L211.367 292.364C212.017 291.918 212.907 291.887 213.621 292.305C214.362 292.738 214.789 293.538 214.716 294.322L214.208 301.494L218.773 307.468C219.273 308.138 219.364 309.018 218.988 309.693C218.597 310.393 217.81 310.759 217.006 310.634L209.661 309.643L203.897 313.776C203.247 314.222 202.357 314.252 201.643 313.835C200.902 313.402 200.475 312.601 200.548 311.818L201.056 304.646L196.491 298.672C195.991 298.001 195.9 297.122 196.276 296.447C196.667 295.746 197.454 295.38 198.257 295.506L205.59 296.455ZM212.529 293.869C212.6 293.808 212.697 293.83 212.752 293.862C212.834 293.91 212.86 293.994 212.859 294.062L212.329 301.6C212.31 301.83 212.375 302.04 212.523 302.23L217.318 308.51C217.386 308.584 217.37 308.678 217.341 308.73C217.298 308.808 217.214 308.827 217.144 308.821L209.452 307.8C209.216 307.765 208.992 307.841 208.823 307.948L202.749 312.244C202.678 312.306 202.582 312.284 202.527 312.252C202.444 312.204 202.418 312.12 202.42 312.052L202.95 304.514C202.969 304.284 202.904 304.074 202.755 303.884L197.946 297.63C197.878 297.556 197.894 297.462 197.923 297.41C197.966 297.332 198.05 297.312 198.12 297.318L205.84 298.356C206.075 298.391 206.299 298.315 206.469 298.208L212.529 293.869Z" fill="#9C63FF"/>
<path d="M246.1 435.073C223.199 432.564 196.184 448.067 183.035 466.079C176.952 474.502 175.789 482.657 178.115 489.557C181.603 499.863 192.696 507.48 206.293 508.913C216.311 509.989 225.883 507.569 235.633 505.508C264.08 499.325 292.079 484.36 320.525 472.979C348.792 461.688 377.418 454.071 407.295 462.315C407.742 462.494 408.279 462.136 408.458 461.688C408.637 461.24 408.279 460.702 407.832 460.523C377.507 452.099 348.435 459.806 319.809 471.187C291.453 482.478 263.543 497.443 235.186 503.626C225.615 505.687 216.222 508.107 206.382 507.032C193.68 505.598 183.124 498.608 179.904 488.84C177.757 482.388 178.83 474.861 184.555 467.064C197.347 449.5 223.647 434.446 245.921 436.865C246.457 436.955 246.905 436.596 246.905 436.059C246.905 435.521 246.547 435.073 246.1 435.073Z" fill="#3D248A"/>
<path d="M1113.74 380.619L1106.13 412.349C1105.2 416.203 1104.52 420.032 1104.26 423.982C1104.01 427.886 1104.02 431.766 1104.46 435.674L1110.37 488.155L1111.04 497.898L1130.53 496.582L1129.86 486.84L1128.67 434.047C1128.61 431.543 1128.88 429.087 1129.25 426.658C1129.61 424.229 1130.29 421.894 1131.08 419.54L1141.54 388.64L1145.56 374.752L1117.75 366.777L1113.74 380.619Z" fill="#3D248A"/>
<path d="M1078.73 367.246L1052.32 416.438C1049.63 421.426 1048 426.842 1047.82 432.367C1047.66 437.83 1048.51 443.331 1050.81 448.472L1068.22 486.605L1071.93 495.657L1090.01 488.261L1086.29 479.209L1071.93 439.828C1071.25 437.991 1071.22 435.98 1071.44 434.07C1071.64 432.222 1072.45 430.476 1073.49 428.892L1103.64 381.893L1110.98 369.425L1086.01 354.753L1078.73 367.246Z" fill="#3D248A"/>
<path d="M1115.68 515.498L1115.18 510.963L1115.07 504.075L1128.84 503.817L1128.95 510.705L1128.28 519.438L1128.37 524.229L1108.92 527.74L1104.42 528.889L1102.12 519.876L1106.63 518.728L1115.68 515.498Z" fill="#FF5784"/>
<path d="M1103.06 534.869L1127.91 529.82C1128.73 529.67 1129.25 528.888 1129.07 528.06C1128.89 527.233 1128.11 526.723 1127.29 526.873L1102.44 531.922C1101.61 532.072 1101.1 532.854 1101.28 533.682C1101.45 534.509 1102.23 535.019 1103.06 534.869Z" fill="#3D248A"/>
<path d="M1114.77 510.707C1115.86 510.826 1117.02 510.711 1118.11 510.83C1118.92 510.931 1119.67 510.359 1119.78 509.505C1119.88 508.699 1119.31 507.944 1118.45 507.84C1117.36 507.721 1116.25 507.839 1115.16 507.72C1114.35 507.619 1113.59 508.191 1113.49 508.997C1113.34 509.848 1113.91 510.603 1114.77 510.707Z" fill="#3D248A"/>
<path d="M1114.91 515.831C1116.04 516.144 1117.16 516.553 1118.34 516.821C1119.14 517.017 1119.94 516.543 1120.13 515.743C1120.33 514.943 1119.86 514.147 1119.05 513.951C1117.92 513.686 1116.8 513.278 1115.72 512.968C1114.92 512.772 1114.12 513.245 1113.88 513.995C1113.64 514.792 1114.11 515.588 1114.91 515.831Z" fill="#3D248A"/>
<path d="M1080.41 512.401L1078.54 508.237L1076.32 501.714L1089.35 497.257L1091.57 503.78L1093.61 512.302L1095.17 516.834L1077.74 526.122L1073.8 528.593L1068.85 520.713L1072.79 518.242L1080.41 512.401Z" fill="#FF5784"/>
<path d="M1074.35 534.7L1096.46 522.293C1097.19 521.899 1097.44 520.997 1097.02 520.263C1096.6 519.53 1095.7 519.282 1094.96 519.677L1072.86 532.084C1072.12 532.478 1071.87 533.381 1072.29 534.114C1072.72 534.848 1073.61 535.095 1074.35 534.7Z" fill="#3D248A"/>
<path d="M1078.08 508.139C1079.16 507.919 1080.22 507.455 1081.3 507.235C1082.1 507.084 1082.64 506.308 1082.48 505.463C1082.33 504.665 1081.55 504.121 1080.71 504.284C1079.63 504.504 1078.61 504.956 1077.53 505.177C1076.73 505.328 1076.19 506.103 1076.34 506.902C1076.5 507.747 1077.28 508.29 1078.08 508.139Z" fill="#3D248A"/>
<path d="M1079.78 512.928C1080.95 512.881 1082.14 512.927 1083.34 512.822C1084.17 512.764 1084.78 512.069 1084.72 511.247C1084.66 510.425 1083.97 509.812 1083.14 509.871C1081.99 509.964 1080.79 509.918 1079.67 509.953C1078.85 510.012 1078.23 510.707 1078.23 511.494C1078.29 512.315 1079 512.975 1079.78 512.928Z" fill="#3D248A"/>
<path d="M1076.82 292.314C1087.81 273.309 1112.1 266.802 1131.12 277.768C1150.14 288.734 1156.64 312.988 1145.65 331.994L1076.82 292.314Z" fill="#FF5784"/>
<path d="M1148.46 212.715L1157.12 200.732C1157.42 200.362 1157.35 199.77 1156.9 199.474C1156.53 199.178 1155.94 199.252 1155.64 199.696L1146.98 211.679C1146.68 212.049 1146.75 212.641 1147.2 212.937C1147.64 213.159 1148.16 213.085 1148.46 212.715Z" fill="#3D248A"/>
<path d="M1135.35 207.241L1141.05 179.281C1141.13 178.837 1140.83 178.319 1140.39 178.245C1139.94 178.171 1139.42 178.467 1139.35 178.911L1133.64 206.871C1133.57 207.315 1133.87 207.833 1134.31 207.907C1134.76 208.055 1135.27 207.759 1135.35 207.241Z" fill="#3D248A"/>
<path d="M1120.39 204.874L1115.79 189.192C1115.65 188.749 1115.13 188.453 1114.68 188.601C1114.24 188.749 1113.94 189.266 1114.09 189.71L1118.68 205.392C1118.83 205.836 1119.28 206.132 1119.79 205.984C1120.24 205.836 1120.54 205.392 1120.39 204.874Z" fill="#3D248A"/>
<path d="M1111.34 244.922C1107.44 253.287 1110.25 263.651 1119.33 264.282C1120.87 264.387 1122.55 263.914 1124.05 263.335C1127.45 261.967 1129.59 259.442 1131.17 256.391C1132.72 253.444 1133.72 250.025 1134.94 246.763C1135.12 246.29 1134.9 245.816 1134.44 245.606C1133.99 245.448 1133.49 245.658 1133.31 246.132C1132.08 249.341 1131.08 252.708 1129.63 255.601C1128.22 258.284 1126.36 260.547 1123.41 261.757C1122.19 262.23 1120.78 262.651 1119.46 262.546C1111.61 261.967 1109.57 252.918 1112.93 245.658C1113.15 245.238 1112.93 244.711 1112.52 244.501C1112.11 244.291 1111.57 244.501 1111.34 244.922Z" fill="#3D248A"/>
<path d="M1134.15 247.357C1136.3 247.283 1138.75 246.766 1140.3 245.138C1142.89 242.549 1142.74 237.445 1138.97 235.966C1137.56 235.374 1136 235.596 1134.52 235.744C1134 235.744 1133.63 236.188 1133.71 236.706C1133.71 237.223 1134.15 237.593 1134.67 237.519C1135.93 237.445 1137.19 237.149 1138.37 237.667C1140.97 238.703 1140.82 242.179 1139.12 244.029C1137.86 245.286 1135.93 245.656 1134.23 245.73C1133.71 245.73 1133.34 246.174 1133.41 246.618C1133.26 246.987 1133.71 247.357 1134.15 247.357Z" fill="#3D248A"/>
<path d="M1137.62 232.829C1137.62 236.675 1125.33 245.996 1112.15 245.33C1100.22 244.664 1098.37 225.506 1112.15 222.029C1128.44 217.961 1137.62 232.829 1137.62 232.829Z" fill="#3D248A"/>
<path d="M1133.48 236.601C1134.66 236.527 1135.92 236.749 1137.11 236.971C1140.14 237.636 1142.51 240.669 1140.14 243.628C1138.14 246.069 1130.37 246.957 1133.18 251.765C1135.11 255.093 1139.92 254.649 1143.03 253.984C1150.51 252.208 1155.84 245.921 1156.95 238.672C1158.07 231.423 1151.84 223.952 1144.81 222.399C1138.73 221.067 1130.96 223.138 1129.4 229.796L1133.48 236.601Z" fill="#3D248A"/>
<path d="M1173.93 359.804C1176.11 350.245 1178.08 339.094 1179.57 323.159C1180.3 315.888 1177.7 308.618 1172.46 303.477C1165.62 296.664 1155.48 287.482 1146.73 283.185C1140.54 280.173 1135.01 279.639 1131.62 283.679C1125.85 290.535 1127.4 297.571 1132.12 303.847C1136.63 309.853 1144.03 315.182 1150.33 319.025C1156.98 323.062 1161.12 330.268 1161.24 338.06C1161.38 348.009 1161.59 359.625 1161.59 359.625C1161.61 360.112 1161.97 360.514 1162.46 360.494C1162.95 360.473 1163.35 360.108 1163.33 359.622C1163.33 359.622 1163.12 348.005 1162.98 338.056C1162.83 329.639 1158.39 321.889 1151.17 317.528C1145.09 313.815 1137.83 308.689 1133.47 302.815C1129.34 297.211 1127.82 291.009 1132.93 284.878C1134.32 283.218 1136.11 282.586 1138.27 282.635C1140.57 282.678 1143.19 283.543 1145.89 284.891C1154.5 289.055 1164.43 298.175 1171.12 304.787C1175.93 309.598 1178.37 316.317 1177.68 323.029C1176.18 338.825 1174.21 349.907 1172.03 359.396C1171.91 359.888 1172.21 360.363 1172.71 360.482C1173.33 360.525 1173.81 360.227 1173.93 359.804Z" fill="#3D248A"/>
<path d="M1162.42 358.728C1156.66 360.377 1151.7 364.164 1149.36 369.849C1148.72 371.47 1148.23 374.451 1149 376.435C1149.26 377.243 1149.72 377.893 1150.39 378.318C1151.06 378.743 1151.86 378.989 1152.93 378.81C1154.91 378.545 1155.8 377.293 1156.34 375.784C1156.73 374.521 1156.83 373.023 1157.11 371.873C1157.72 369.219 1159.39 367.113 1161.99 366.24C1162.47 366.097 1162.7 365.585 1162.56 365.105C1162.42 364.624 1161.9 364.394 1161.42 364.536C1158.19 365.578 1156.13 368.221 1155.41 371.493C1155.13 372.644 1155.07 374.009 1154.68 375.272C1154.39 376.203 1153.88 376.918 1152.74 377.076C1152.14 377.112 1151.72 377.055 1151.35 376.866C1150.81 376.482 1150.57 375.828 1150.45 375.06C1150.19 373.526 1150.55 371.67 1150.96 370.561C1153.07 365.387 1157.62 361.983 1162.83 360.456C1163.31 360.313 1163.54 359.802 1163.47 359.342C1163.39 358.882 1162.9 358.585 1162.42 358.728Z" fill="#3D248A"/>
<path d="M1160.83 365.3C1158.74 369.682 1157.35 375.368 1160.14 379.793C1160.91 381.051 1161.86 382.218 1163.29 382.802C1165.73 383.846 1168.9 382.784 1169.01 379.833C1169.04 379.04 1168.78 378.232 1168.28 377.496C1167.75 376.605 1166.92 375.766 1166.5 374.984C1165.7 373.572 1165.69 371.966 1165.45 370.365C1165.38 369.905 1164.97 369.562 1164.45 369.618C1163.99 369.695 1163.64 370.098 1163.7 370.625C1163.94 372.446 1164.02 374.292 1164.92 375.878C1165.28 376.574 1165.94 377.285 1166.51 378.042C1166.91 378.605 1167.24 379.213 1167.27 379.807C1167.2 381.458 1165.33 381.831 1163.98 381.268C1162.89 380.786 1162.3 379.876 1161.64 378.945C1159.19 375.062 1160.58 370.102 1162.45 366.165C1162.66 365.72 1162.45 365.219 1162.01 365.009C1161.61 364.666 1161.04 364.855 1160.83 365.3Z" fill="#3D248A"/>
<path d="M1163.76 370.648C1165.37 373.692 1166.63 375.753 1170.31 376.594C1171.19 376.794 1172.45 376.743 1173.38 376.304C1174.15 375.956 1174.7 375.328 1174.9 374.443C1175.04 373.758 1174.81 373.103 1174.35 372.453C1173.88 371.87 1173.18 371.291 1172.8 370.882C1171.78 369.695 1171.29 368.232 1170.81 366.703C1170.67 366.222 1170.18 365.925 1169.7 366.068C1169.22 366.211 1168.92 366.702 1169.06 367.183C1169.54 368.932 1170.17 370.656 1171.42 372.058C1171.73 372.447 1172.27 372.831 1172.7 373.327C1172.9 373.608 1173.2 373.844 1173.11 374.11C1173.06 374.529 1172.71 374.713 1172.29 374.876C1171.73 375.065 1171.09 375.014 1170.6 374.937C1167.52 374.281 1166.56 372.454 1165.24 369.866C1165.01 369.431 1164.48 369.267 1164.05 369.497C1163.7 369.681 1163.53 370.213 1163.76 370.648Z" fill="#3D248A"/>
<path d="M1081.4 365.035L1118.61 387.807L1145.52 374.623C1149.89 359.898 1145.69 351.765 1137.46 343.718L1092.29 342.434L1081.4 365.035Z" fill="#3D248A"/>
<path d="M1133.8 248.333C1129.94 252.785 1130.71 260.147 1134.06 264.77C1135.86 267.253 1139.37 269.735 1142.54 268.194C1145.37 266.825 1144.51 261.774 1143.83 259.548C1143.66 258.949 1143.4 258.007 1142.89 257.579C1142.71 257.408 1143.14 257.921 1143.31 258.092C1143.49 258.264 1143.66 258.52 1143.83 258.692C1144.26 259.205 1144.6 259.548 1145.11 259.976C1146.57 261.26 1149.06 262.544 1151.03 261.859C1153.17 261.089 1153.09 258.949 1152.14 257.151C1151.8 256.551 1151.37 255.952 1150.94 255.353C1150.69 255.096 1150.6 255.01 1150.26 254.754C1150.17 254.668 1149.74 254.582 1149.91 254.497C1152.66 253.983 1157.72 255.867 1158.4 251.586C1158.74 249.36 1156.69 247.477 1154.89 246.706C1153.09 245.936 1151.03 245.85 1149.06 245.679C1147 245.508 1144.86 245.336 1142.89 245.679L1133.8 248.333Z" fill="#3D248A"/>
<path d="M1111.25 243.367C1108.85 242.768 1106.03 243.111 1103.71 243.881C1102.51 244.309 1101.05 245.08 1100.8 246.449C1100.11 249.788 1105.25 250.302 1107.4 249.874C1107.65 249.788 1106.88 250.131 1106.54 250.216C1105.85 250.473 1105.51 250.559 1104.83 250.901C1102.94 251.672 1100.11 253.298 1100.8 255.781C1101.23 257.579 1104.14 257.065 1105.34 256.723C1105.85 256.551 1106.37 256.38 1106.8 256.209C1106.97 256.123 1107.23 255.867 1107.23 255.952C1107.14 256.209 1106.45 256.98 1106.37 257.236C1105.68 258.178 1105.17 259.548 1105.43 260.832C1105.68 261.945 1106.71 262.116 1107.74 261.774C1109.03 261.431 1110.48 259.89 1110.91 258.692C1111.17 258.007 1110.83 257.151 1110.65 256.551C1110.48 255.61 1110.48 254.582 1110.4 253.641C1110.23 250.388 1110.74 246.706 1112.11 243.71L1111.25 243.367Z" fill="#3D248A"/>
<path d="M1084.34 302.952C1081.59 313.054 1077.91 331.204 1075.42 335.484C1072.42 340.535 1053.91 358.342 1047.56 361.938C1047.13 362.195 1046.96 362.708 1047.22 363.136C1047.48 363.565 1047.99 363.736 1048.42 363.479C1054.94 359.798 1073.88 341.563 1076.88 336.34C1079.45 332.06 1083.22 313.568 1085.97 303.38C1086.14 302.952 1085.8 302.439 1085.37 302.267C1084.94 302.182 1084.51 302.439 1084.34 302.952Z" fill="#3D248A"/>
<path d="M1038.81 355.682C1039.13 355.465 1039.62 355.414 1040.18 355.447C1040.74 355.546 1041.45 355.811 1042.23 356.225C1044.05 357.237 1046.18 359.13 1047.45 360.592C1048.08 361.323 1048.53 361.954 1048.65 362.387C1048.85 362.836 1048.57 363.335 1048.06 363.519C1047.55 363.703 1047.13 363.42 1046.92 362.972C1046.79 362.672 1046.48 362.274 1046.1 361.725C1044.92 360.347 1042.93 358.686 1041.29 357.774C1040.85 357.558 1040.41 357.343 1040.04 357.277C1039.86 357.244 1039.78 357.161 1039.66 357.277L1039.56 357.327C1039.25 357.478 1039.19 357.81 1039.22 358.16C1039.33 358.592 1039.52 359.107 1039.81 359.639C1040.69 361.102 1042.12 362.663 1043.13 363.393C1043.31 363.493 1043.56 363.675 1043.65 363.692C1044.03 363.691 1044.29 363.874 1044.51 364.19C1044.73 364.572 1044.66 364.971 1044.32 365.254C1043.53 365.938 1041.9 366.539 1040.01 367.024C1037.51 367.677 1034.55 368.247 1033.29 368.914C1032.98 369.065 1032.55 369.331 1032.2 369.681C1032.1 369.731 1032.08 369.798 1032.06 369.931C1032.05 369.997 1031.96 369.981 1032.04 370.064C1032.1 370.214 1032.29 370.247 1032.46 370.346C1032.82 370.479 1033.09 370.528 1033.46 370.594C1035.41 370.874 1040.78 370.117 1042.4 369.582C1043.11 369.365 1043.81 369.148 1044.68 369.096C1044.88 369.063 1045.07 369.029 1045.18 368.979C1045.28 368.929 1045.48 368.896 1045.57 368.912C1045.66 368.929 1045.76 368.945 1045.85 368.961C1046.31 369.044 1046.53 369.426 1046.57 369.709C1046.55 369.842 1046.59 370.125 1046.35 370.425C1045.74 371.141 1044.44 372.008 1042.96 372.842C1040.95 373.993 1038.64 375.16 1037.82 376.043C1037.69 376.226 1037.47 376.393 1037.33 376.643C1037.21 376.76 1037.19 376.893 1037.26 377.042C1037.34 377.125 1037.52 377.158 1037.71 377.191C1038.07 377.257 1038.46 377.257 1038.94 377.206C1041.37 376.953 1044.77 375.5 1045.79 375.133C1046.31 374.882 1046.83 374.632 1047.35 374.382C1047.56 374.282 1047.65 374.298 1047.77 374.182C1047.87 374.132 1048.2 373.915 1048.2 373.915C1048.5 373.831 1048.68 373.864 1048.85 373.964C1049.12 374.08 1049.28 374.246 1049.33 374.462C1049.41 374.545 1049.54 374.911 1049.18 375.327C1048.19 376.593 1046.24 378.442 1044.75 380.374C1044.13 381.157 1043.52 381.94 1043.29 382.655C1043.4 382.605 1043.59 382.572 1043.7 382.522C1046.37 381.42 1051.89 377.735 1057.98 370.307C1058.21 370.073 1058.77 369.624 1059.54 369.073C1061.26 367.94 1064.25 366.139 1067.24 364.337C1070.23 362.536 1073.22 360.735 1074.97 359.468C1075.63 358.968 1076.07 358.635 1076.3 358.402C1076.56 358.035 1077.15 357.935 1077.56 358.283C1077.99 358.566 1077.99 359.114 1077.72 359.547C1077.47 359.847 1076.9 360.364 1076.03 360.964C1074.28 362.231 1071.19 364.082 1068.2 365.883C1065.21 367.684 1062.32 369.502 1060.59 370.635C1059.94 371.069 1059.51 371.336 1059.38 371.519C1052.07 380.446 1045.49 384.215 1043.22 384.635C1041.74 384.92 1041.31 384.155 1041.35 383.407C1041.47 382.192 1042.3 380.76 1043.41 379.378C1043.91 378.712 1044.5 378.062 1045.08 377.479C1043.45 378.081 1041.02 378.883 1039.17 379.102C1038.4 379.17 1037.73 379.187 1037.19 379.022C1036.74 378.873 1036.3 378.657 1036.07 378.342C1035.52 377.694 1035.47 376.929 1035.78 376.229C1035.97 375.713 1036.33 375.297 1036.68 374.947C1037.49 374.131 1039.39 373.097 1041.2 372.046L1041.52 371.829C1039.05 372.349 1035.07 372.804 1033.3 372.557C1032.75 372.458 1032.11 372.276 1031.58 372.044C1031.15 371.829 1030.73 371.48 1030.61 371.114C1030.26 370.433 1030.39 369.701 1030.88 369.101C1031.36 368.501 1032.13 367.951 1032.75 367.651C1034.11 367 1037.17 366.38 1039.77 365.677C1040.57 365.476 1041.38 365.209 1041.99 364.975C1040.82 364.079 1039.31 362.434 1038.44 360.905C1037.94 359.991 1037.62 359.11 1037.57 358.345C1037.44 356.948 1037.87 356.132 1038.81 355.682Z" fill="#3D248A"/>
<path d="M1123.77 312.541C1122.74 313.911 1121.63 315.195 1120.6 316.565C1117.08 321.273 1113.57 326.068 1109.8 330.519C1109.03 331.375 1107.74 333.344 1106.45 334.543C1105.77 335.142 1105.08 335.656 1104.48 335.742C1104.14 335.827 1103.97 335.742 1103.8 335.656C1103.63 335.57 1103.54 335.399 1103.45 335.228C1103.37 335.057 1103.28 334.885 1103.37 334.629C1103.37 334.372 1103.54 334.029 1103.54 333.858C1103.54 332.831 1103.54 332.916 1103.54 331.889C1103.45 330.091 1103.37 328.293 1103.37 326.496C1103.28 320.76 1103.28 315.024 1103.2 309.288C1103.11 305.007 1102.94 300.812 1103.2 296.532C1103.2 296.018 1103.63 295.676 1104.14 295.676C1104.65 295.676 1105 296.104 1105 296.617C1104.65 300.812 1104.91 305.007 1105 309.202C1105.08 314.938 1105.08 320.674 1105.17 326.41C1105.17 328.208 1105.25 330.006 1105.34 331.803C1105.34 332.66 1105.34 332.745 1105.34 333.344C1105.51 333.173 1105.68 333.002 1105.94 332.745C1106.97 331.547 1108 330.091 1108.6 329.406C1112.37 324.955 1115.88 320.16 1119.31 315.537C1120.34 314.168 1121.46 312.884 1122.48 311.514C1122.57 311.343 1123.08 310.486 1123.43 310.058C1123.68 309.802 1123.94 309.63 1124.11 309.63C1124.37 309.545 1124.63 309.63 1124.8 309.716C1125.06 309.802 1125.23 310.058 1125.4 310.315C1125.48 310.486 1125.48 310.743 1125.48 311C1125.48 311.171 1125.48 311.343 1125.48 311.514C1126.08 313.996 1126.08 316.65 1126.17 319.219C1126.26 321.701 1126.34 324.184 1126.43 326.667C1126.6 329.92 1126.94 333.259 1127.11 336.512C1127.11 337.026 1126.77 337.454 1126.26 337.454C1125.74 337.454 1125.31 337.111 1125.31 336.598C1125.14 333.344 1124.8 330.006 1124.63 326.752C1124.46 324.27 1124.46 321.787 1124.37 319.304C1124.2 316.993 1124.2 314.767 1123.77 312.541Z" fill="#3D248A"/>
<path d="M1180.74 416.786L1162.33 433.146L1156.63 411.889L1180.74 416.786Z" fill="#00D5FF"/>
<path d="M1234.81 280.434L1197.26 277.015L1215.07 248.421L1234.81 280.434Z" fill="#FF5784"/>
<path d="M1234.73 281.31C1235.02 281.337 1235.39 281.252 1235.59 280.919C1235.8 280.585 1235.83 280.293 1235.56 279.974L1215.88 247.85C1215.73 247.6 1215.4 247.393 1215.11 247.366C1214.81 247.339 1214.56 247.492 1214.36 247.826L1196.55 276.42C1196.41 276.642 1196.31 277.045 1196.47 277.294C1196.62 277.544 1196.84 277.682 1197.25 277.779L1234.73 281.31ZM1198.69 276.206L1233.03 279.328L1215.04 249.949L1198.69 276.206Z" fill="white"/>
<path d="M1056.98 187.806C1057.72 187.241 1058.73 187.138 1059.55 187.614C1060.38 188.09 1060.79 189.01 1060.67 189.938L1058.29 205.123L1071.15 213.535C1071.96 214.05 1072.35 215.008 1072.13 215.931C1071.91 216.853 1071.2 217.542 1070.27 217.69L1055.06 220.137L1051.03 235C1050.77 235.9 1050.02 236.566 1049.08 236.653C1048.14 236.739 1047.25 236.279 1046.79 235.439L1039.76 221.744L1024.37 222.513C1023.45 222.56 1022.55 222.039 1022.18 221.142C1021.78 220.285 1021.98 219.301 1022.63 218.628L1033.51 207.71L1028.03 193.336C1027.69 192.462 1027.96 191.462 1028.63 190.851C1029.32 190.201 1030.32 190.098 1031.19 190.496L1044.92 197.414L1056.98 187.806Z" fill="#FFC700"/>
<path d="M1206.94 477.987C1207.01 477.573 1207.31 477.219 1207.73 477.105C1208.16 476.991 1208.6 477.147 1208.87 477.471L1213.47 483.174L1220.72 484.308C1221.13 484.38 1221.49 484.68 1221.6 485.106C1221.72 485.532 1221.56 485.969 1221.23 486.238L1215.53 490.836L1214.4 498.073C1214.33 498.487 1214.03 498.842 1213.6 498.955C1213.17 499.069 1212.74 498.913 1212.47 498.589L1207.86 492.886L1200.62 491.752C1200.2 491.68 1199.85 491.38 1199.73 490.954C1199.62 490.529 1199.77 490.091 1200.1 489.822L1205.8 485.224L1206.94 477.987Z" fill="#FFC700"/>
<path d="M1030.21 468.885C1035.74 471.697 1042.13 473.715 1049.12 474.816C1095.55 482.091 1164.9 465.216 1197.01 441.921C1213.63 429.876 1222.83 414.041 1220.36 399.122C1218.74 389.217 1211.84 379.801 1198.72 372.22C1198.29 371.975 1198.12 371.425 1198.38 370.997C1198.63 370.569 1199.14 370.447 1199.57 370.691C1213.29 378.64 1220.27 388.545 1222.06 398.878C1224.62 414.346 1215.33 430.855 1198.04 443.389C1165.58 466.928 1095.63 483.926 1048.78 476.589C1041.45 475.427 1034.64 473.287 1028.84 470.23C1018.88 479.585 1004.05 486.31 988.035 488.939C987.524 489 987.098 488.695 987.013 488.206C986.928 487.716 987.269 487.288 987.78 487.166C1003.2 484.598 1017.51 478.239 1027.22 469.313C1019.22 464.727 1013.34 458.307 1011.12 450.542C1009.67 445.345 1010.19 436.785 1015.55 432.261C1017.85 430.304 1021.18 429.082 1025.52 429.204C1031.14 429.387 1034.89 431.222 1037.36 433.851C1039.66 436.296 1040.77 439.537 1041.11 442.9C1041.62 447.852 1040.34 453.11 1038.73 456.718C1036.85 461.12 1033.87 465.155 1030.21 468.885ZM1028.59 468.029C1032.25 464.36 1035.23 460.325 1037.19 455.984C1038.73 452.621 1039.83 447.669 1039.41 443.083C1039.15 440.087 1038.13 437.213 1036.08 435.073C1033.87 432.689 1030.55 431.16 1025.52 430.977C1012.49 430.549 1010.95 443.389 1012.83 450.053C1015.04 457.512 1020.75 463.627 1028.59 468.029Z" fill="#3D248A"/>
</svg>
