<svg width="1440" height="598" viewBox="0 0 1440 598" fill="none" xmlns="http://www.w3.org/2000/svg">
<rect width="1440" height="598" fill="#FF5784"/>
<rect width="1440" height="598" fill="#3D248A"/>
<path d="M588.183 277.255C616.46 270.696 642.198 296.489 661.066 318.548C679.925 340.596 699.391 369.286 690.539 396.916C682.114 423.214 646.151 424.147 622.612 438.584C605.538 449.056 593.195 466.189 573.336 468.798C548.471 472.064 520.101 472.153 502.417 454.372C484.066 435.92 476.92 405.425 486.085 381.068C494.277 359.299 526.932 362.459 543.242 345.876C563.173 325.61 560.494 283.677 588.183 277.255Z" fill="#FFC700"/>
<path d="M118.766 362.052C110.612 320.801 109.823 278.32 122.956 237.615C136.792 194.736 158.793 152.631 195.661 123.733C232.759 94.6552 281.024 72.553 328.303 76.6598C374.081 80.6361 396.765 133.868 440.95 145.039C492.373 158.04 552.278 121.907 599.155 145.137C648.478 169.581 706.725 218.584 694.459 270.672C680.299 330.81 580.398 334.661 542.544 385.552C517.18 419.652 556.37 481.534 519.98 505.245C482.386 529.74 434.155 488.433 389.248 485.437C356.995 483.286 325.948 492.166 293.682 490.148C250.937 487.474 202.596 496.113 169.226 471.675C135.337 446.857 126.68 402.086 118.766 362.052Z" fill="white"/>
<path d="M407.965 447.448L394.521 519.785L349 476.722L407.965 447.448Z" fill="#00D5FF"/>
<path d="M1365.57 355.449L1363.45 493.073L1266 427.92L1365.57 355.449Z" fill="#FFC700"/>
<path d="M39.6004 480.666L30.2301 451.626L55.3332 458.352L39.6004 480.666Z" fill="#E1E1E1"/>
<path d="M1215.41 104.179L1402.48 159.269L1283.46 285.131L1215.41 104.179Z" stroke="#E1E1E1" stroke-width="3"/>
<path d="M114.265 161.339L159.016 217.74L73.3792 233.648L114.265 161.339Z" fill="#FFC700"/>
<path d="M768.738 519.393L756.85 482L790.196 492.617L768.738 519.393Z" fill="#FF5784"/>
<path d="M607.799 192.556L625.493 92.9998L688.845 157.184L607.799 192.556Z" fill="#FF5784"/>
<path d="M593.262 426.115C593.262 424.855 592.764 423.648 591.867 422.736C590.97 421.85 589.765 421.341 588.496 421.341C576.825 421.341 546.933 421.341 535.262 421.341C534.003 421.341 532.788 421.85 531.891 422.736C530.994 423.621 530.496 424.855 530.496 426.115C530.496 427.376 530.994 428.583 531.891 429.495C532.788 430.38 533.993 430.89 535.262 430.89C546.933 430.89 576.825 430.89 588.496 430.89C589.755 430.89 590.97 430.38 591.867 429.495C592.764 428.61 593.262 427.376 593.262 426.115Z" fill="white"/>
<path d="M358.526 404.241C358.526 401.613 356.391 399.467 353.764 399.467C345.564 399.467 328.879 399.467 320.679 399.467C318.046 399.467 315.917 401.613 315.917 404.241C315.917 406.87 318.052 409.016 320.679 409.016C328.879 409.016 345.564 409.016 353.764 409.016C356.391 409.016 358.526 406.897 358.526 404.241Z" fill="#E1E1E1"/>
<path d="M194.558 416.592C194.558 413.963 192.424 411.817 189.793 411.817C187.435 411.817 184.597 411.817 182.239 411.817C179.607 411.817 177.474 413.963 177.474 416.592C177.474 419.221 179.607 421.366 182.239 421.366C184.597 421.366 187.435 421.366 189.793 421.366C192.424 421.34 194.558 419.221 194.558 416.592Z" fill="#E1E1E1"/>
<path d="M568.887 399.493C568.887 396.865 566.753 394.719 564.122 394.719C561.764 394.719 558.926 394.719 556.568 394.719C553.936 394.719 551.803 396.865 551.803 399.493C551.803 402.122 553.936 404.268 556.568 404.268C558.926 404.268 561.764 404.268 564.122 404.268C566.753 404.241 568.887 402.122 568.887 399.493Z" fill="white"/>
<path d="M315.914 432.707C315.914 431.446 315.407 430.239 314.518 429.327C313.629 428.442 312.408 427.933 311.147 427.933C298.129 427.933 262.072 427.933 249.054 427.933C247.792 427.933 246.582 428.442 245.683 429.327C244.794 430.213 244.287 431.446 244.287 432.707C244.287 433.968 244.794 435.175 245.683 436.087C246.572 436.972 247.792 437.482 249.054 437.482C262.072 437.482 298.129 437.482 311.147 437.482C312.408 437.482 313.618 436.972 314.518 436.087C315.407 435.175 315.914 433.968 315.914 432.707Z" fill="#E1E1E1"/>
<path d="M449.499 218.931H338.937V253.547H449.499V218.931Z" fill="#00D5FF"/>
<path d="M571.989 275.439H515.609V306.33H571.989V275.439Z" fill="#FF5784"/>
<path d="M389.929 312.408H311.596V376.735H389.929V312.408Z" fill="#FFC700"/>
<path d="M483.617 309.138C491.893 295.526 489.084 279.219 477.343 272.732C465.603 266.245 449.363 272.026 441.086 285.637L483.617 309.138Z" fill="#FF5784"/>
<path d="M487.406 255.311C487.406 255.311 476.728 259.818 469.56 253.27C462.011 246.359 466.198 241.569 469.031 241.266C477.362 240.417 487.406 255.311 487.406 255.311Z" fill="#3D248A"/>
<path d="M439.981 323.05L427.832 346.27C424.926 351.828 422.827 357.708 421.737 363.811C420.647 369.854 420.405 376.017 421.172 382.181L421.979 388.506L422.443 393.963L433.362 393.013L432.897 387.557L432.615 381.191C432.393 376.24 432.998 371.329 434.229 366.58C435.46 361.912 437.479 357.466 440.082 353.323L454.047 331.154L458.084 324.121L444.017 316.018L439.981 323.05Z" fill="#3D248A"/>
<path d="M459.227 336.094L459.522 356.619C459.608 362.688 461.243 368.361 464.432 372.99C467.542 377.528 471.858 381.227 477.244 383.266L484.017 385.842L488.932 387.987L493.922 377.761L489.006 375.616L482.54 372.392C479.494 370.878 477.226 368.394 475.642 365.515C474.121 362.743 473.581 359.465 473.855 356.063L475.516 335.45L475.779 327.241L459.49 327.885L459.227 336.094Z" fill="#3D248A"/>
<path d="M423.665 404.542L423.176 401.706L422.85 397.852L430.551 397.206L430.877 401.06L430.855 406.326L431.083 409.006L419.787 411.867L417.311 412.68L415.692 407.714L418.169 406.9L423.665 404.542Z" fill="#FF5784"/>
<path d="M416.6 416.467L431.247 412.459C431.688 412.33 431.957 411.877 431.835 411.425C431.712 410.972 431.247 410.714 430.806 410.843L416.159 414.851C415.718 414.98 415.448 415.432 415.571 415.885C415.693 416.337 416.159 416.596 416.6 416.467Z" fill="#3D248A"/>
<path d="M422.664 401.563C423.33 401.603 423.996 401.482 424.662 401.523C425.126 401.543 425.51 401.179 425.55 400.734C425.57 400.27 425.227 399.886 424.763 399.845C424.117 399.805 423.451 399.946 422.785 399.906C422.321 399.865 421.917 400.229 421.897 400.694C421.837 401.118 422.2 401.523 422.664 401.563Z" fill="#3D248A"/>
<path d="M422.967 404.594C423.653 404.736 424.359 404.938 425.046 405.059C425.51 405.14 425.934 404.837 426.014 404.392C426.095 403.927 425.792 403.503 425.328 403.422C424.642 403.301 423.976 403.119 423.29 402.978C422.846 402.876 422.402 403.18 422.301 403.624C422.22 404.069 422.523 404.513 422.967 404.594Z" fill="#3D248A"/>
<path d="M500.275 391.402L497.76 390.437L494.544 388.824L498.649 381.646L501.864 383.259L505.978 385.879L508.215 387L503.694 398.473L502.849 401.081L497.988 400.069L498.832 397.462L500.275 391.402Z" fill="#FF5784"/>
<path d="M505.928 403.805L511.325 389.247C511.481 388.805 511.296 388.356 510.885 388.245C510.475 388.135 510.013 388.412 509.857 388.855L504.459 403.412C504.303 403.854 504.489 404.303 504.899 404.414C505.31 404.525 505.772 404.247 505.928 403.805Z" fill="#3D248A"/>
<path d="M497.09 390.591C497.508 390.032 497.802 389.395 498.22 388.835C498.505 388.442 498.451 387.933 498.136 387.684C497.794 387.442 497.303 387.555 497.003 387.939C496.597 388.481 496.318 389.128 495.9 389.687C495.6 390.071 495.642 390.597 495.984 390.839C496.299 391.088 496.79 390.975 497.09 390.591Z" fill="#3D248A"/>
<path d="M499.809 392.015C500.319 391.484 500.887 390.965 501.381 390.424C501.714 390.058 501.73 389.541 501.437 389.255C501.128 388.959 500.626 389.018 500.292 389.384C499.798 389.925 499.27 390.419 498.76 390.949C498.423 391.288 498.395 391.823 498.677 392.127C498.97 392.412 499.488 392.363 499.809 392.015Z" fill="#3D248A"/>
<path d="M440.667 321.959L459.335 335.661L474.733 336.409L476.63 327.092L444.32 315.978L440.667 321.959Z" fill="#3D248A"/>
<path d="M469.19 303.869L458.652 297.565C458.483 297.47 458.409 297.262 458.468 297.045C458.526 296.828 458.67 296.659 458.85 296.593L473.923 291.648C474.174 291.563 474.419 291.736 474.445 292C474.471 292.264 474.294 292.558 474.044 292.644L460.144 297.211L470.789 303.598C470.958 303.693 471.032 303.901 470.973 304.118C470.915 304.335 470.771 304.504 470.56 304.565L457.474 307.684L467.084 313.337C467.253 313.432 467.327 313.64 467.268 313.857C467.209 314.074 467.066 314.243 466.855 314.303L453.365 318.195C453.115 318.281 452.869 318.108 452.852 317.813C452.826 317.548 453.002 317.255 453.253 317.169L465.507 313.644L455.813 307.943C455.644 307.848 455.57 307.641 455.629 307.424C455.687 307.207 455.839 307.006 456.042 306.977L469.19 303.869Z" fill="#3D248A"/>
<path d="M446.04 273.575C441.701 276.222 438.048 276.889 435.021 276.263C432.216 275.677 429.975 273.979 428.24 271.776C425.596 268.402 424.123 263.875 423.719 260.197C423.699 259.914 423.437 259.712 423.154 259.752C422.872 259.772 422.67 260.035 422.71 260.318C423.114 264.158 424.668 268.887 427.433 272.403C429.309 274.788 431.772 276.606 434.799 277.253C438.028 277.94 441.943 277.273 446.564 274.444C446.807 274.303 446.887 273.979 446.726 273.737C446.585 273.494 446.262 273.434 446.04 273.575Z" fill="#3D248A"/>
<path d="M421.379 255.257C421.178 252.085 420.35 248.487 418.332 245.961C417.989 245.537 417.262 244.749 416.536 244.405C415.89 244.102 415.224 244.102 414.699 244.688C414.376 245.032 414.195 245.476 414.155 245.961C414.074 246.588 414.195 247.255 414.336 247.8C414.82 249.639 415.507 251.418 415.93 253.257C415.991 253.519 416.274 253.701 416.536 253.641C416.798 253.58 416.98 253.297 416.919 253.034C416.475 251.175 415.789 249.397 415.305 247.538C415.204 247.174 415.123 246.729 415.123 246.305C415.123 245.961 415.204 245.618 415.426 245.355C415.608 245.153 415.85 245.193 416.092 245.315C416.677 245.597 417.262 246.244 417.525 246.588C419.422 248.952 420.169 252.347 420.35 255.318C420.37 255.601 420.612 255.803 420.895 255.783C421.178 255.783 421.4 255.54 421.379 255.257Z" fill="#3D248A"/>
<path d="M419.217 257.061C418.814 256.111 418.43 255.141 417.865 254.252C417.3 253.363 416.351 252.655 415.383 252.352C414.676 252.15 413.97 252.17 413.405 252.474C412.8 252.797 412.295 253.444 412.134 254.555C411.992 255.525 412.315 256.536 412.921 257.465C413.748 258.758 415.12 259.89 416.23 260.456C416.654 260.678 417.401 260.961 418.087 261.002C418.652 261.042 419.157 260.901 419.5 260.537C419.702 260.335 419.681 260.011 419.48 259.83C419.278 259.627 418.955 259.648 418.773 259.85C418.632 260.011 418.39 260.032 418.148 260.011C417.623 259.991 417.038 259.749 416.695 259.587C415.706 259.082 414.515 258.092 413.788 256.96C413.344 256.253 413.042 255.485 413.163 254.757C413.264 254.07 413.526 253.625 413.91 253.423C414.273 253.241 414.697 253.262 415.141 253.383C415.887 253.605 416.614 254.151 417.058 254.838C417.583 255.667 417.946 256.576 418.329 257.485C418.43 257.748 418.733 257.869 418.995 257.768C419.197 257.607 419.338 257.324 419.217 257.061Z" fill="#3D248A"/>
<path d="M412.537 255.929C412.093 255.869 411.629 255.788 411.165 255.849C409.591 256.01 408.925 257.728 409.268 259.102C409.53 260.194 411.044 261.931 412.638 262.72C413.829 263.285 415.04 263.326 415.887 262.437C416.089 262.235 416.069 261.911 415.867 261.729C415.665 261.527 415.343 261.548 415.161 261.75C414.616 262.315 413.849 262.174 413.082 261.81C411.77 261.164 410.479 259.769 410.257 258.88C410.055 258.072 410.338 256.98 411.286 256.879C411.649 256.839 412.033 256.92 412.396 256.96C412.679 257.001 412.921 256.798 412.961 256.536C413.022 256.212 412.82 255.97 412.537 255.929Z" fill="#3D248A"/>
<path d="M412.846 267.329C413.472 270.906 415.126 274.321 416.862 277.474C420.918 284.87 430.848 297.218 448.103 292.55C448.365 292.469 448.526 292.206 448.466 291.923C448.385 291.661 448.123 291.499 447.84 291.559C431.211 296.046 421.665 284.102 417.75 276.989C416.075 273.917 414.44 270.623 413.835 267.147C413.795 266.864 413.532 266.682 413.25 266.743C412.987 266.784 412.806 267.046 412.846 267.329Z" fill="#3D248A"/>
<path d="M470.152 252.438C466.739 256.176 466.109 259.696 467.126 262.3C468.167 264.952 470.879 266.736 474.316 266.929C475.478 267.002 476.689 266.712 477.778 266.326C480.321 265.458 481.894 263.819 483.105 261.842C484.243 259.937 485.041 257.719 485.961 255.573C486.083 255.308 485.961 255.018 485.695 254.898C485.429 254.777 485.138 254.898 485.017 255.163C484.097 257.261 483.347 259.455 482.233 261.311C481.144 263.096 479.739 264.566 477.464 265.362C476.495 265.7 475.406 265.965 474.389 265.892C471.411 265.7 468.99 264.205 468.094 261.89C467.174 259.551 467.852 256.441 470.927 253.089C471.121 252.872 471.096 252.559 470.903 252.366C470.661 252.221 470.346 252.245 470.152 252.438Z" fill="#3D248A"/>
<path d="M487.647 255.327C487.647 255.327 480.212 248.716 478.126 246.394C471.956 239.497 483.725 233.351 486.898 242.749C488.664 247.93 487.826 252.022 487.647 255.327Z" fill="#3D248A"/>
<path d="M482.513 261.204C486.045 259.345 490.379 256.617 491.986 252.959C492.768 251.161 492.198 248.574 489.681 249.665C487.715 250.534 486.7 252.414 485.77 254.192C484.776 256.071 482.513 261.204 482.513 261.204Z" fill="#3D248A"/>
<path d="M502.971 331.614C507.253 324.653 508.051 314.014 505.674 304.618C503.039 294.27 496.306 284.278 487.472 280.343C483.267 278.48 479.084 279.97 477.928 284.352C476.787 288.73 479.423 293.318 483.235 296.253C489.052 300.71 491.974 302.671 494.197 307.986C496.722 314.007 497.719 320.733 495.777 326.068C495.687 326.324 495.811 326.646 496.05 326.783C496.294 326.938 496.555 326.854 496.645 326.598C498.677 321.007 497.657 313.974 495.02 307.668C492.704 302.122 489.709 300.042 483.651 295.391C480.233 292.769 477.788 288.7 478.811 284.78C479.825 280.882 483.555 279.62 487.271 281.271C495.78 285.051 502.244 294.718 504.765 304.684C507.075 313.784 506.314 324.102 502.154 330.856C502.016 331.066 502.096 331.398 502.308 331.6C502.548 331.834 502.833 331.823 502.971 331.614Z" fill="#3D248A"/>
<path d="M489.935 332.566C489.29 332.509 488.608 332.471 487.963 332.357C486.923 332.186 485.955 331.825 485.202 331.027C484.001 329.792 484.521 327.646 485.919 326.886C486.744 326.43 487.837 326.487 488.716 326.601C490.079 326.772 491.549 327.114 492.858 327.551C493.126 327.646 493.27 327.931 493.18 328.197C493.091 328.462 492.804 328.614 492.535 328.519C491.28 328.102 489.881 327.779 488.59 327.627C487.909 327.532 487.067 327.437 486.439 327.779C485.596 328.253 485.238 329.545 485.973 330.305C486.582 330.932 487.353 331.198 488.178 331.331C489.092 331.483 490.061 331.502 490.921 331.597C491.136 331.616 491.244 331.73 491.316 331.825C491.387 331.92 491.423 332.034 491.423 332.167C491.423 332.243 491.387 332.357 491.334 332.471C491.28 332.547 491.154 332.68 491.118 332.737C491.029 332.87 490.939 333.022 490.832 333.155C490.509 333.61 490.168 334.028 489.81 334.427C489.559 334.712 489.29 334.997 489.021 335.282C488.483 335.871 487.604 336.916 487.228 337.98C487.031 338.568 486.959 339.138 487.318 339.613C487.425 339.746 487.604 339.803 487.784 339.803C488.035 339.822 488.304 339.765 488.519 339.689C489.11 339.461 489.63 339.024 490.114 338.53C490.67 337.98 491.172 337.372 491.656 336.878C491.979 336.555 492.266 336.213 492.571 335.89C492.589 335.871 492.804 335.605 492.858 335.567C493.109 335.358 493.342 335.453 493.413 335.472C493.557 335.529 493.628 335.624 493.682 335.7C493.754 335.814 493.79 335.966 493.754 336.118C493.736 336.232 493.664 336.384 493.521 336.517C493.431 336.612 493.27 336.726 493.198 336.821C492.929 337.201 492.696 337.6 492.463 337.999C492.087 338.644 491.62 339.347 491.352 340.107C491.118 340.734 491.047 341.399 491.405 342.064C491.495 342.216 491.62 342.254 491.764 342.235C491.925 342.235 492.105 342.178 492.266 342.102C493.252 341.703 493.862 340.601 494.453 339.727C494.704 339.366 494.955 338.986 495.152 338.587C495.224 338.435 495.296 338.265 495.386 338.113C495.421 338.037 495.529 337.809 495.565 337.79C495.798 337.486 496.085 337.581 496.174 337.619C496.21 337.638 496.605 337.79 496.461 338.265C496.156 339.328 495.583 340.525 495.35 341.722C495.134 342.748 495.188 343.773 496.049 344.609C496.461 345.008 496.945 344.856 497.394 344.552C497.967 344.153 498.487 343.507 498.756 343.014C500.011 340.658 500.603 337.676 499.742 335.111C499.617 334.731 499.473 334.142 499.24 333.629C499.133 333.382 499.007 333.155 498.846 333.041C498.613 332.889 498.541 332.566 498.702 332.319C498.864 332.091 499.186 332.015 499.42 332.186C499.724 332.395 499.993 332.775 500.19 333.212C500.424 333.743 500.585 334.389 500.728 334.788C501.679 337.638 501.069 340.924 499.671 343.507C499.276 344.248 498.415 345.274 497.501 345.692C496.766 346.034 495.995 346.015 495.332 345.35C494.256 344.286 494.077 343.033 494.292 341.741C493.826 342.311 493.306 342.805 492.66 343.071C491.889 343.375 490.975 343.412 490.509 342.558C489.989 341.627 490.061 340.677 490.383 339.765C490.401 339.727 490.419 339.689 490.437 339.651C489.953 340.088 489.433 340.468 488.859 340.677C488.465 340.829 487.909 340.905 487.443 340.81C487.067 340.734 486.726 340.563 486.493 340.24C485.919 339.48 485.919 338.568 486.26 337.638C486.69 336.441 487.658 335.244 488.25 334.598C488.501 334.313 488.77 334.028 489.039 333.743C489.326 333.382 489.648 332.984 489.935 332.566Z" fill="#3D248A"/>
<path d="M410.172 259.563C409.829 259.583 409.446 259.724 409.183 259.947C407.993 260.998 408.255 262.635 409.103 263.807C409.809 264.797 411.121 265.504 412.332 265.504C412.856 265.504 413.321 265.343 413.805 265.241C414.087 265.181 414.249 264.918 414.209 264.655C414.148 264.373 413.886 264.191 413.623 264.251C413.179 264.332 412.776 264.494 412.332 264.494C411.424 264.494 410.475 263.948 409.95 263.221C409.405 262.473 409.123 261.402 409.89 260.715C409.991 260.634 410.132 260.593 410.253 260.573C410.536 260.553 410.737 260.311 410.737 260.028C410.697 259.765 410.455 259.543 410.172 259.563Z" fill="#3D248A"/>
<path d="M495.549 242.348C497.265 240.408 499.364 238.69 500.817 236.528C500.978 236.306 500.917 235.982 500.675 235.821C500.453 235.659 500.13 235.72 499.969 235.962C498.536 238.084 496.478 239.782 494.782 241.681C494.601 241.883 494.621 242.207 494.823 242.389C495.045 242.57 495.368 242.55 495.549 242.348Z" fill="#3D248A"/>
<path d="M499.444 249.058C503.359 248.067 507.335 246.774 511.291 246.026C511.573 245.966 511.755 245.703 511.694 245.44C511.634 245.157 511.371 244.975 511.109 245.036C507.133 245.764 503.137 247.077 499.202 248.067C498.94 248.128 498.758 248.411 498.839 248.694C498.899 248.977 499.182 249.138 499.444 249.058Z" fill="#3D248A"/>
<path d="M498.657 256.333C501.341 256.999 504.167 257.889 506.81 258.737C507.073 258.818 507.355 258.677 507.456 258.414C507.537 258.151 507.396 257.868 507.133 257.767C504.469 256.919 501.644 256.009 498.92 255.342C498.657 255.282 498.375 255.443 498.314 255.706C498.213 255.989 498.375 256.252 498.657 256.333Z" fill="#3D248A"/>
<path d="M276.987 292.167C270.707 272.902 252.255 260.242 235.793 263.902C219.33 267.563 211.068 286.164 217.348 305.429L276.987 292.167Z" fill="#00D5FF"/>
<path d="M227.901 245.69C227.901 245.69 237.771 250.907 245.477 244.542C253.594 237.823 250.066 232.662 247.346 232.198C239.345 230.877 227.901 245.69 227.901 245.69Z" fill="#3D248A"/>
<path d="M255.756 323.538L264.342 363.301L264.822 365.803L268.727 390.042L269.39 395.422L279.376 392.089L278.713 386.709L276.521 361.899L276.138 358.635L270.396 317.745L269.012 309.924L254.336 315.71L255.756 323.538Z" fill="#3D248A"/>
<path d="M227.265 322.424L226.719 356.006L226.518 358.641L221.132 390.431L220.037 395.626L230.343 400.011L231.438 394.816L239.152 364L239.874 359.452L242.839 326.514L243.265 318.426L227.685 314.363L227.265 322.424Z" fill="#3D248A"/>
<path d="M219.586 409.795L223.321 413.667L225.1 415.158L221.615 419.738L219.836 418.247L213.2 413.83L211.365 412.294L214.889 404.32L216.795 400.515L223.124 403.248L221.218 407.053L219.586 409.795Z" fill="#00D5FF"/>
<path d="M222.692 421.85L211.245 413.255C210.904 412.987 210.359 413.155 210.056 413.587C209.744 414.042 209.785 414.61 210.126 414.879L221.574 423.474C221.914 423.742 222.46 423.574 222.762 423.142C223.075 422.687 223.033 422.119 222.692 421.85Z" fill="#3D248A"/>
<path d="M221.99 405.574C221.377 405.428 220.854 405.116 220.25 404.949C219.827 404.838 219.343 405.169 219.156 405.668C218.969 406.166 219.178 406.645 219.602 406.755C220.214 406.901 220.747 407.24 221.368 407.364C221.792 407.475 222.276 407.143 222.463 406.645C222.622 406.162 222.422 405.662 221.99 405.574Z" fill="#3D248A"/>
<path d="M220.47 408.27C219.8 408.226 219.131 408.23 218.471 408.164C218.024 408.119 217.562 408.5 217.439 408.987C217.317 409.475 217.569 409.937 218.006 409.956C218.685 410.027 219.38 410.007 220.05 410.051C220.478 410.091 220.94 409.71 221.054 409.196C221.168 408.729 220.907 408.288 220.47 408.27Z" fill="#3D248A"/>
<path d="M266.492 316.008L244.862 327.238L230.408 325.239L231.647 314.953L265.041 308.961L266.492 316.008Z" fill="#3D248A"/>
<path d="M244.57 243.971C247.175 247.582 247.459 250.816 246.326 253.174C245.196 255.506 242.679 256.914 239.768 256.953C238.774 256.974 237.749 256.618 236.845 256.244C234.724 255.328 233.507 253.715 232.675 251.823C231.78 249.852 231.299 247.556 230.666 245.35C230.579 245.071 230.311 244.932 230.039 245.041C229.767 245.151 229.64 245.444 229.704 245.721C230.355 247.978 230.88 250.302 231.769 252.322C232.697 254.418 234.063 256.19 236.431 257.219C237.447 257.649 238.586 258.036 239.722 258.024C243.058 257.983 245.913 256.294 247.22 253.647C248.5 251.023 248.286 247.369 245.395 243.343C245.232 243.109 244.926 243.093 244.693 243.279C244.442 243.415 244.407 243.737 244.57 243.971Z" fill="#3D248A"/>
<path d="M227.589 245.464C227.589 245.464 235.367 239.155 237.601 236.911C244.21 230.246 233.729 223.397 229.685 232.755C227.439 237.932 227.782 242.123 227.589 245.464Z" fill="#3D248A"/>
<path d="M231.87 251.47C228.699 249.392 224.857 246.387 223.726 242.581C223.178 240.71 224.012 238.108 226.297 239.352C228.081 240.34 228.843 242.305 229.535 244.164C230.276 246.128 231.87 251.47 231.87 251.47Z" fill="#3D248A"/>
<path d="M200.779 344.914C200.572 346.275 200.042 347.532 198.745 348.431C197.951 348.997 197.268 348.862 196.715 348.404C196.033 347.816 195.602 346.618 195.465 345.787C195.043 342.88 195.515 339.407 197.215 336.669C197.449 336.282 197.791 335.649 198.178 335.147C198.487 334.734 198.843 334.392 199.178 334.231C199.431 334.116 199.7 334.23 199.773 334.492C199.845 334.754 199.682 335.072 199.423 335.206C199.245 335.295 199.063 335.507 198.892 335.741C198.533 336.207 198.218 336.804 197.99 337.172C196.43 339.669 196.041 342.808 196.428 345.441C196.514 345.993 196.76 346.743 197.162 347.254C197.466 347.644 197.848 347.884 198.337 347.547C199.364 346.821 199.722 345.799 199.847 344.71C200.003 343.463 199.87 342.117 199.927 340.974C199.941 340.482 200.343 340.376 200.381 340.363C200.472 340.339 200.756 340.292 200.869 340.644C200.879 340.666 200.904 340.919 200.928 341.006C200.961 341.177 200.956 341.362 200.988 341.533C201.04 341.976 201.146 342.409 201.257 342.823C201.512 343.821 201.713 345.056 202.465 345.637C202.59 345.723 202.732 345.813 202.869 345.86C202.996 345.885 203.129 345.891 203.24 345.748C203.757 345.148 203.898 344.455 203.891 343.752C203.88 342.946 203.69 342.126 203.555 341.398C203.471 340.949 203.387 340.5 203.266 340.063C203.232 339.954 203.124 339.809 203.073 339.696C202.993 339.515 202.97 339.366 202.99 339.246C203.021 339.088 203.078 338.955 203.182 338.831C203.253 338.762 203.362 338.681 203.491 338.644C203.566 338.618 203.796 338.58 203.955 338.838C203.99 338.886 204.099 339.196 204.109 339.219C204.28 339.603 204.439 340.026 204.616 340.39C204.893 340.981 205.151 341.691 205.474 342.352C205.751 342.943 206.087 343.503 206.532 343.818C206.683 343.93 206.904 344.035 207.148 344.062C207.313 344.074 207.484 344.066 207.62 343.949C208.085 343.525 208.203 342.909 208.203 342.291C208.197 341.135 207.74 339.912 207.445 339.215C207.31 338.879 207.159 338.54 207.009 338.201C206.814 337.73 206.646 337.223 206.495 336.719C206.456 336.567 206.402 336.412 206.369 336.241C206.345 336.154 206.269 336.015 206.261 335.931C206.232 335.802 206.251 335.682 206.275 335.604C206.316 335.468 206.383 335.357 206.476 335.272C206.568 335.188 206.693 335.109 206.896 335.108C207.688 335.16 208.553 335.309 209.41 335.313C210.183 335.32 210.948 335.182 211.682 334.646C212.562 334.015 212.649 332.609 212.048 331.976C211.597 331.516 210.804 331.464 210.186 331.446C208.973 331.393 207.655 331.464 206.413 331.673C206.146 331.724 205.938 331.518 205.94 331.23C205.943 330.942 206.164 330.656 206.426 330.624C207.721 330.405 209.13 330.311 210.391 330.373C211.206 330.409 212.193 330.541 212.784 331.152C213.784 332.193 213.567 334.48 212.143 335.52C211.22 336.184 210.25 336.385 209.285 336.401C208.677 336.406 208.061 336.326 207.471 336.272C207.613 336.753 207.76 337.215 207.945 337.664C208.08 337.999 208.231 338.338 208.381 338.677C208.701 339.461 209.207 340.859 209.209 342.138C209.208 343.148 208.937 344.105 208.2 344.764C207.9 345.034 207.539 345.17 207.182 345.182C206.723 345.195 206.27 345.024 205.967 344.799C205.538 344.488 205.194 344.008 204.884 343.473C204.888 343.515 204.892 343.557 204.896 343.599C204.901 344.59 204.672 345.576 203.924 346.439C203.247 347.233 202.448 347.035 201.858 346.59C201.326 346.176 201.017 345.579 200.779 344.914Z" fill="#3D248A"/>
<path d="M315.36 263.277C315.782 262.975 316.186 262.655 316.571 262.335C316.861 262.086 317.15 261.819 317.44 261.552C318.193 260.894 322.036 257.386 324.79 255.743C325.556 255.283 326.241 254.986 326.77 254.885C327.261 254.783 327.671 254.879 327.928 255.099C328.221 255.338 328.398 255.684 328.462 256.065C328.541 256.554 328.449 257.095 328.287 257.491C328.124 257.904 327.403 258.78 326.433 259.797C325.23 261.063 323.625 262.614 322.33 263.825C322.368 263.808 322.424 263.79 322.463 263.773C323.374 263.46 324.314 263.401 325.218 263.937C326.049 264.419 325.984 265.34 325.66 266.113C325.377 266.76 324.873 267.277 324.296 267.739C325.579 267.54 326.813 267.719 327.831 268.836C328.468 269.514 328.444 270.291 328.103 271.027C327.662 271.943 326.622 272.778 325.878 273.184C323.263 274.539 319.997 275.109 317.228 274.13C316.838 273.998 316.204 273.827 315.686 273.567C315.261 273.362 314.893 273.086 314.696 272.776C314.553 272.539 314.619 272.214 314.85 272.055C315.08 271.895 315.397 271.972 315.559 272.209C315.666 272.373 315.888 272.503 316.128 272.615C316.609 272.856 317.206 273.009 317.578 273.141C320.104 274.044 323.051 273.488 325.417 272.255C325.914 271.991 326.567 271.494 326.98 270.903C327.294 270.456 327.459 269.97 327.077 269.549C326.258 268.67 325.265 268.602 324.245 268.805C323.074 269.023 321.855 269.585 320.794 269.877C320.339 270.016 320.182 269.616 320.164 269.58C320.13 269.489 320.045 269.198 320.352 268.968C320.371 268.95 320.6 268.844 320.677 268.791C320.83 268.703 321 268.651 321.153 268.563C321.553 268.37 321.936 268.122 322.301 267.874C323.182 267.29 324.29 266.69 324.714 265.702C324.776 265.54 324.837 265.36 324.861 265.198C324.865 265.053 324.851 264.908 324.703 264.834C324.076 264.464 323.416 264.527 322.771 264.753C322.031 265.014 321.303 265.474 320.653 265.844C320.252 266.074 319.85 266.303 319.467 266.569C319.371 266.64 319.253 266.801 319.157 266.89C319.002 267.033 318.868 267.103 318.755 267.12C318.605 267.136 318.474 267.116 318.344 267.042C318.271 266.986 318.18 266.895 318.127 266.768C318.092 266.695 318.024 266.459 318.238 266.209C318.277 266.155 318.547 265.942 318.566 265.924C318.895 265.621 319.261 265.319 319.57 265.016C320.267 264.339 323.57 261.312 325.665 259.099C326.499 258.225 327.141 257.493 327.303 257.133C327.384 256.936 327.448 256.665 327.438 256.394C327.424 256.213 327.392 256.032 327.264 255.922C327.209 255.885 327.153 255.884 327.078 255.883C326.965 255.881 326.851 255.916 326.7 255.95C326.283 256.071 325.806 256.317 325.252 256.635C322.555 258.243 318.789 261.679 318.055 262.32C317.766 262.569 317.476 262.836 317.187 263.103C316.781 263.459 316.339 263.796 315.898 264.116C315.763 264.204 315.629 264.311 315.476 264.399C315.399 264.452 315.283 264.577 315.206 264.612C315.092 264.683 314.978 264.699 314.903 264.698C314.772 264.697 314.66 264.659 314.569 264.585C314.477 264.512 314.386 264.402 314.355 264.185C314.288 263.316 314.299 262.34 314.176 261.416C314.07 260.583 313.831 259.803 313.23 259.18C312.52 258.429 311.214 258.772 310.719 259.615C310.362 260.243 310.429 261.111 310.503 261.781C310.632 263.103 310.89 264.498 311.265 265.769C311.351 266.041 311.192 266.328 310.926 266.415C310.66 266.501 310.364 266.353 310.298 266.081C309.906 264.756 309.613 263.269 309.485 261.894C309.399 261.007 309.377 259.904 309.852 259.079C310.665 257.68 312.801 257.204 313.967 258.413C314.713 259.2 315.04 260.181 315.197 261.214C315.325 261.938 315.342 262.626 315.36 263.277Z" fill="#3D248A"/>
<path d="M218.339 311.713C218.339 311.713 218.526 311.31 218.806 310.705C219.69 308.738 221.921 307.869 223.88 308.798C224.834 309.262 225.894 309.774 226.899 310.237C228.064 310.794 229.36 310.85 230.524 310.365C231.689 309.879 232.571 308.906 233.025 307.649C233.34 306.695 234.077 305.926 234.939 305.599C235.851 305.221 236.837 305.287 237.739 305.754C238.535 306.175 239.332 306.595 240.074 306.968C242.25 308.087 244.791 307.208 245.815 304.939C245.955 304.637 246.092 304.284 246.284 303.98C246.797 302.87 247.738 302.044 248.861 301.759C249.984 301.473 251.235 301.68 252.201 302.393C252.31 302.488 252.415 302.534 252.524 302.63C253.704 303.485 255.166 303.784 256.542 303.391C257.918 302.997 259.007 302.017 259.611 300.656C260.073 299.548 261.014 298.722 262.085 298.438C263.206 298.103 264.405 298.311 265.369 298.975C266.119 299.496 266.869 300.018 267.564 300.491C268.42 301.059 269.462 301.223 270.43 300.942C271.399 300.662 272.19 299.94 272.556 298.984C273.204 297.473 273.803 296.012 273.803 296.012C273.894 295.761 273.773 295.417 273.562 295.325C273.296 295.185 273.043 295.293 272.903 295.595C272.903 295.595 272.304 297.056 271.656 298.567C271.381 299.272 270.786 299.788 270.123 299.959C269.41 300.181 268.68 300.057 268.09 299.629C267.394 299.156 266.644 298.634 265.895 298.113C264.663 297.26 263.203 297.01 261.827 297.404C260.451 297.797 259.313 298.828 258.709 300.19C258.245 301.248 257.355 302.072 256.284 302.356C255.212 302.64 254.013 302.432 253.101 301.767C252.993 301.671 252.887 301.625 252.779 301.529C251.545 300.626 250.03 300.329 248.603 300.724C247.175 301.119 246.035 302.101 245.382 303.513C245.244 303.866 245.104 304.168 244.912 304.473C244.119 306.188 242.139 306.899 240.491 306.01C239.749 305.638 238.899 305.169 238.156 304.797C237.04 304.188 235.745 304.132 234.58 304.617C233.415 305.103 232.531 306.027 232.128 307.282C231.762 308.237 231.079 309.055 230.168 309.433C229.256 309.811 228.221 309.795 227.319 309.329C226.365 308.864 225.306 308.353 224.3 307.89C221.864 306.729 219.073 307.765 217.955 310.236C217.675 310.841 217.489 311.245 217.489 311.245C217.398 311.496 217.467 311.842 217.73 311.932C217.944 312.074 218.248 311.965 218.339 311.713Z" fill="#3D248A"/>
<path d="M225.954 275.843C223.859 273.081 221.755 271.564 219.804 270.884C215.283 269.228 211.526 271.868 210.176 272.805C202.477 278.198 198.276 287.929 196.5 297.721C194.695 307.52 195.305 317.345 197.122 322.984C198.363 326.775 199.818 331.505 202.21 334.85C202.372 335.082 202.681 335.174 202.846 334.992C203.051 334.839 203.045 334.501 202.883 334.269C200.563 331.061 199.179 326.468 197.988 322.742C196.214 317.246 195.666 307.635 197.416 298.073C199.166 288.511 203.232 278.957 210.785 273.705C212.027 272.827 215.509 270.314 219.681 271.849C221.464 272.486 223.378 273.889 225.311 276.418C225.473 276.651 225.771 276.707 225.976 276.554C226.122 276.413 226.146 276.07 225.954 275.843Z" fill="#3D248A"/>
<path d="M228.313 276.097C230.867 279.487 229.823 282.824 227.262 285.98C223.212 290.953 215.412 295.425 210.873 298.93C201.842 305.916 202.379 317.678 202.603 321.498C202.772 324.194 202.912 327.541 204.045 330.05C204.17 330.298 204.457 330.42 204.69 330.292C204.924 330.189 205.034 329.888 204.933 329.639C203.849 327.229 203.737 324.032 203.572 321.461C203.352 317.79 202.779 306.454 211.463 299.747C216.025 296.216 223.894 291.669 228.013 286.645C230.896 283.11 231.951 279.349 229.078 275.537C228.907 275.314 228.598 275.268 228.39 275.446C228.181 275.573 228.142 275.899 228.313 276.097Z" fill="#3D248A"/>
<path d="M252.73 263.317C254.685 259.822 259.629 259.415 263.208 261.078C267.266 262.944 272.985 265.557 283.906 270.545C286.414 271.699 289.772 271.936 293.498 271.529C298.995 270.918 305.378 268.95 311.023 266.473C311.281 266.371 311.392 266.066 311.281 265.828C311.171 265.591 310.875 265.455 310.617 265.557C305.083 268 298.811 269.968 293.387 270.545C289.846 270.918 286.673 270.715 284.311 269.663C273.428 264.675 267.672 262.062 263.614 260.195C259.592 258.363 254.058 258.94 251.844 262.876C251.697 263.114 251.807 263.419 252.029 263.555C252.287 263.623 252.582 263.555 252.73 263.317Z" fill="#3D248A"/>
<path d="M278.988 287.953C289.696 289.48 300.506 286.257 308.639 279.097C312.332 275.839 315.416 273.125 315.416 273.125C315.619 272.955 315.653 272.616 315.45 272.412C315.28 272.208 314.941 272.174 314.738 272.378C314.738 272.378 311.654 275.093 307.961 278.35C300.065 285.306 289.526 288.462 279.123 286.969C279.157 286.969 278.988 287.953 278.988 287.953Z" fill="#3D248A"/>
<path d="M285.392 402.819L291.143 403.069L293.599 402.944L294.8 408.345L292.344 408.47L284.1 409.722L281.569 409.851L277.674 402.09L275.975 398.242L282.652 396.031L284.35 399.88L285.392 402.819Z" fill="#00D5FF"/>
<path d="M296.492 409.357L281.675 410.971C281.224 411.011 280.972 411.481 281.097 411.972C281.233 412.485 281.709 412.845 282.16 412.805L296.978 411.19C297.428 411.15 297.68 410.68 297.555 410.189C297.419 409.676 296.943 409.317 296.492 409.357Z" fill="#3D248A"/>
<path d="M284.063 398.224C283.514 398.521 282.898 398.647 282.339 398.923C281.953 399.122 281.873 399.662 282.137 400.123C282.4 400.584 282.928 400.776 283.314 400.577C283.862 400.28 284.507 400.167 285.044 399.85C285.431 399.651 285.51 399.111 285.246 398.65C284.959 398.225 284.432 398.033 284.063 398.224Z" fill="#3D248A"/>
<path d="M284.885 401.215C284.378 401.617 283.908 402.051 283.389 402.433C283.038 402.69 283.015 403.249 283.317 403.662C283.619 404.075 284.166 404.229 284.49 403.96C285.025 403.57 285.502 403.108 286.009 402.706C286.344 402.456 286.367 401.897 286.037 401.472C285.745 401.079 285.237 400.957 284.885 401.215Z" fill="#3D248A"/>
<path d="M401.59 302.773H424.497C424.759 302.773 425.022 302.566 425.022 302.29C425.022 302.014 424.825 301.808 424.497 301.808H401.59C401.327 301.808 401.065 302.014 401.065 302.29C401.065 302.566 401.262 302.773 401.59 302.773Z" fill="#3D248A"/>
<path d="M401.59 313.273H424.497C424.759 313.273 425.022 313.066 425.022 312.79C425.022 312.514 424.825 312.308 424.497 312.308H401.59C401.327 312.308 401.065 312.514 401.065 312.79C401.065 313.066 401.262 313.273 401.59 313.273Z" fill="#3D248A"/>
<path d="M401.582 323.74H413.036C413.298 323.74 413.528 323.533 413.528 323.257C413.528 322.981 413.298 322.774 413.036 322.774H401.582C401.32 322.774 401.09 322.981 401.09 323.257C401.057 323.533 401.287 323.74 401.582 323.74Z" fill="#3D248A"/>
<path d="M466.804 175.872L475.216 186.999L461.556 187.976L466.804 175.872Z" fill="#3D248A"/>
<path d="M194.317 257.853L202.73 268.979L189.069 269.956L194.317 257.853Z" fill="#3D248A"/>
<path d="M355.171 241.241L395.798 265.802L357.314 286.997L355.171 241.241Z" fill="#FF5784"/>
<path d="M281.41 237.769L285.603 242.204C285.787 242.416 285.787 242.736 285.586 242.913C285.385 243.09 285.066 243.09 284.881 242.878L280.37 238.124C280.186 237.947 280.186 237.627 280.37 237.45L284.881 232.696C285.066 232.484 285.385 232.484 285.586 232.661C285.787 232.838 285.787 233.158 285.603 233.37L281.41 237.769Z" fill="#3D248A"/>
<path d="M271.742 237.769L275.935 242.204C276.119 242.416 276.119 242.736 275.918 242.913C275.717 243.09 275.398 243.09 275.213 242.878L270.702 238.124C270.518 237.947 270.518 237.627 270.702 237.45L275.213 232.696C275.398 232.484 275.717 232.484 275.918 232.661C276.119 232.838 276.119 233.158 275.935 233.37L271.742 237.769Z" fill="#3D248A"/>
<path d="M262.057 237.769L266.249 242.204C266.434 242.416 266.434 242.736 266.233 242.913C266.031 243.09 265.713 243.09 265.528 242.878L261.017 238.124C260.832 237.947 260.832 237.627 261.017 237.45L265.528 232.696C265.713 232.484 266.031 232.484 266.233 232.661C266.434 232.838 266.434 233.158 266.249 233.37L262.057 237.769Z" fill="#3D248A"/>
<path d="M529.718 364.016H300.019C299.529 364.016 299.039 363.592 299.039 363.025V292.601C299.039 292.318 299.284 292.106 299.529 292.106C299.774 292.106 300.019 292.318 300.019 292.601V363.025H529.718V203.986H300.019V264.785C300.019 265.068 299.774 265.281 299.529 265.281C299.284 265.281 299.039 265.068 299.039 264.785V203.986C299.039 203.42 299.529 202.996 300.019 202.996H529.718C530.208 202.996 530.698 203.42 530.698 203.986V363.025C530.698 363.592 530.208 364.016 529.718 364.016Z" fill="#3D248A"/>
<path d="M202.106 282.401C207.37 288.152 212.755 293.603 218.737 298.695C218.977 298.875 219.276 298.875 219.455 298.636C219.635 298.396 219.635 298.096 219.395 297.917C213.473 292.884 208.148 287.493 202.883 281.742C202.704 281.562 202.405 281.502 202.165 281.682C201.926 281.861 201.926 282.161 202.106 282.401Z" fill="#3D248A"/>
<path d="M414.368 276.11C417 274.732 419.034 272.696 421.427 270.898C423.581 269.281 425.854 267.843 427.948 266.166C428.188 265.986 428.188 265.686 428.008 265.447C427.829 265.207 427.53 265.207 427.29 265.387C425.196 267.064 422.923 268.502 420.769 270.12C418.436 271.857 416.462 273.834 413.889 275.212C413.65 275.332 413.53 275.631 413.71 275.871C413.829 276.17 414.129 276.23 414.368 276.11Z" fill="#3D248A"/>
<path d="M492.501 318.765C497.287 320.921 502.252 323.018 506.859 325.534C507.098 325.654 507.397 325.594 507.517 325.354C507.636 325.115 507.577 324.815 507.337 324.695C502.731 322.179 497.705 320.083 492.919 317.926C492.68 317.806 492.381 317.926 492.261 318.166C492.142 318.345 492.261 318.645 492.501 318.765Z" fill="#3D248A"/>
<path d="M269.41 274.014C271.205 270.359 273.299 266.645 275.692 263.35C275.871 263.111 275.811 262.811 275.572 262.631C275.333 262.452 275.034 262.512 274.854 262.751C272.461 266.106 270.367 269.88 268.513 273.535C268.393 273.774 268.513 274.074 268.752 274.194C268.991 274.373 269.29 274.253 269.41 274.014Z" fill="#3D248A"/>
<path d="M245.76 214.651C246.875 212.524 247.687 210.06 249.089 208.161C249.232 207.95 249.184 207.625 248.975 207.402C248.756 207.204 248.465 207.201 248.298 207.395C246.866 209.323 246.05 211.832 244.906 213.988C244.788 214.216 244.88 214.554 245.11 214.727C245.347 214.921 245.642 214.879 245.76 214.651Z" fill="#3D248A"/>
<path d="M238.462 212.052C238.049 207.973 237.879 203.772 237.241 199.702C237.203 199.411 236.959 199.189 236.734 199.198C236.487 199.192 236.331 199.42 236.385 199.708C237.017 203.758 237.197 207.935 237.588 211.998C237.62 212.269 237.837 212.519 238.075 212.549C238.322 212.556 238.484 212.347 238.462 212.052Z" fill="#3D248A"/>
<path d="M231.057 214.405C229.657 211.824 228.027 209.189 226.497 206.702C226.348 206.457 226.072 206.37 225.865 206.503C225.675 206.633 225.648 206.94 225.802 207.206C227.326 209.672 228.933 212.291 230.327 214.852C230.458 215.101 230.747 215.228 230.938 215.099C231.144 214.965 231.189 214.654 231.057 214.405Z" fill="#3D248A"/>
<path d="M390.639 299.475C376.228 299.281 364.224 310.991 363.793 325.662C363.363 340.283 374.67 352.356 389.081 352.55C398.376 352.675 407.132 347.734 412.045 339.585L400.978 332.774C398.546 336.849 394.144 339.294 389.521 339.232C382.34 339.135 376.662 333.098 376.877 325.788C377.092 318.477 383.119 312.598 390.3 312.694L390.688 299.475L390.639 299.475Z" fill="#3D248A"/>
<path d="M350.893 341.529C350.653 339.612 349.816 337.635 349.218 335.838C348.859 334.76 348.38 333.682 348.021 332.663C347.004 330.087 345.748 327.631 344.791 324.995C344.671 324.755 344.85 324.456 345.09 324.336C345.329 324.216 345.628 324.396 345.748 324.636C346.705 327.212 347.961 329.728 348.978 332.244C349.397 333.322 349.816 334.4 350.175 335.479C350.953 337.695 352.029 340.331 352.029 342.788C352.029 343.027 351.91 343.147 351.85 343.207C351.73 343.327 351.551 343.387 351.371 343.327C351.312 343.327 351.192 343.267 351.072 343.147C350.953 343.027 350.773 342.728 350.653 342.608C350.414 342.368 350.175 342.129 349.936 341.889C348.739 340.631 347.782 339.193 346.705 337.875C344.671 335.419 342.637 332.963 340.423 330.626C339.047 329.129 337.611 327.092 335.817 325.953C335.936 326.553 336.235 327.631 336.355 327.99C336.953 330.027 337.671 332.004 338.509 333.981C340.543 338.894 343.295 343.986 344.252 349.198C344.312 349.497 344.192 349.617 344.132 349.677C344.073 349.797 343.953 349.857 343.833 349.857C343.773 349.857 343.654 349.857 343.474 349.797C343.415 349.797 343.295 349.677 343.235 349.557C343.056 349.377 342.816 348.958 342.637 348.778C342.338 348.419 342.039 348.059 341.739 347.7C340.304 346.082 338.868 344.465 337.492 342.847C334.142 338.774 330.672 334.76 327.082 330.866C326.723 330.506 325.527 329.069 324.51 328.35C324.33 328.23 324.21 328.17 324.091 328.05C324.091 328.11 324.151 328.17 324.151 328.23C324.27 328.47 324.39 328.769 324.45 329.009C324.809 330.806 325.287 332.603 325.766 334.4C327.68 341.23 331.748 348.958 331.569 356.147C331.569 356.387 331.449 356.506 331.39 356.566C331.27 356.686 331.09 356.686 330.911 356.686C330.851 356.686 330.731 356.626 330.672 356.506C330.612 356.446 330.492 356.267 330.432 356.147C330.073 355.787 329.296 354.829 328.996 354.469C327.381 352.313 325.766 350.036 324.21 347.88C321.518 344.105 318.826 340.271 316.313 336.317C316.194 336.078 316.254 335.778 316.493 335.599C316.732 335.479 317.031 335.539 317.211 335.778C319.664 339.672 322.356 343.506 325.048 347.281C326.544 349.437 328.219 351.714 329.834 353.87C330.014 354.05 330.313 354.469 330.612 354.829C330.313 348.119 326.603 340.99 324.809 334.7C324.33 332.903 323.792 331.046 323.433 329.248C323.373 329.069 323.253 328.769 323.134 328.53C323.014 328.29 322.954 328.05 322.954 327.871C322.954 327.631 323.014 327.451 323.134 327.271C323.193 327.152 323.373 327.092 323.493 327.032C323.672 326.972 323.911 326.972 324.151 327.032C324.39 327.092 324.749 327.271 325.048 327.511C326.125 328.29 327.441 329.788 327.8 330.207C331.39 334.101 334.859 338.175 338.269 342.248C339.645 343.926 341.021 345.483 342.457 347.101C342.577 347.221 342.637 347.34 342.756 347.46C341.56 342.967 339.227 338.594 337.492 334.4C336.654 332.424 335.936 330.387 335.338 328.29C335.218 327.871 334.859 326.493 334.74 326.013C334.68 325.834 334.5 325.474 334.441 325.295C334.381 325.115 334.381 324.995 334.441 324.935C334.5 324.755 334.56 324.636 334.74 324.576C334.859 324.516 334.979 324.456 335.218 324.576C337.611 325.594 339.406 328.11 341.141 329.967C343.295 332.364 345.389 334.76 347.423 337.276C348.5 338.594 349.457 339.972 350.653 341.23C350.653 341.35 350.773 341.47 350.893 341.529Z" fill="white"/>
<path d="M337.193 236.332C341.859 226.987 350.833 218.36 361.003 215.425C363.456 214.706 365.849 214.766 368.362 214.586C368.661 214.586 368.84 214.346 368.84 214.047C368.84 213.747 368.601 213.567 368.302 213.567C365.73 213.747 363.217 213.687 360.704 214.406C350.294 217.401 341.081 226.268 336.295 235.853C336.176 236.093 336.295 236.392 336.535 236.512C336.774 236.692 337.073 236.572 337.193 236.332Z" fill="white"/>
<path d="M405.215 214.226C401.924 214.226 398.753 215.065 395.882 216.742C393.908 217.88 391.933 219.198 390.258 220.816C389.002 222.014 387.985 223.332 387.267 224.89C383.558 232.797 387.865 239.148 393.668 244.719C396.66 247.595 400.488 250.171 402.163 254.124C403.779 257.959 402.941 262.452 402.343 266.406C402.283 266.705 402.463 266.945 402.762 267.005C403.061 267.064 403.3 266.885 403.36 266.585C404.018 262.452 404.856 257.779 403.121 253.765C401.386 249.691 397.497 246.936 394.386 244C388.882 238.788 384.694 232.797 388.164 225.369C388.822 223.931 389.779 222.733 390.916 221.595C392.531 220.037 394.386 218.779 396.301 217.641C398.993 216.083 402.044 215.304 405.155 215.245C405.454 215.245 405.633 215.005 405.633 214.765C405.753 214.406 405.514 214.226 405.215 214.226Z" fill="white"/>
<path d="M409.163 214.645C407.129 218.419 408.266 222.613 410.838 225.848C413.351 229.023 417.359 231.3 421.008 231.479C424.419 231.599 427.589 230.221 430.222 228.005C434.17 224.71 437.102 219.678 438.298 215.364C438.358 215.125 438.238 214.825 437.939 214.765C437.7 214.705 437.401 214.825 437.341 215.125C436.144 219.258 433.333 224.111 429.564 227.286C427.111 229.383 424.179 230.701 421.008 230.581C417.598 230.461 413.949 228.304 411.556 225.309C409.223 222.373 408.206 218.659 410 215.244C410.12 215.005 410.06 214.705 409.821 214.585C409.582 214.286 409.283 214.406 409.163 214.645Z" fill="white"/>
<path d="M456.007 224.889C445.298 224.83 434.11 233.696 433.393 244.839C433.034 250.23 434.29 255.922 436.982 260.654C437.102 260.894 437.401 260.954 437.64 260.834C437.879 260.714 437.939 260.415 437.82 260.175C435.187 255.622 434.051 250.111 434.35 244.899C435.068 234.235 445.776 225.788 455.947 225.848C456.246 225.848 456.425 225.608 456.425 225.369C456.485 225.129 456.306 224.889 456.007 224.889Z" fill="white"/>
<path d="M334.979 249.392C335.697 246.097 337.91 243.341 340.124 240.885C347.662 232.678 359.328 231.479 369.618 234.714C379.848 237.89 388.643 247.654 393.01 257.18C393.13 257.419 393.429 257.539 393.668 257.419C393.907 257.3 394.027 257 393.907 256.76C389.421 247.055 380.387 237.051 369.917 233.816C359.268 230.521 347.183 231.779 339.406 240.286C337.073 242.862 334.74 245.797 334.022 249.272C333.962 249.571 334.141 249.811 334.381 249.871C334.68 249.811 334.919 249.691 334.979 249.392Z" fill="white"/>
<path d="M543.782 265.765C542.465 274.095 549.605 282.634 557.647 284.022C562.153 284.786 566.798 283.467 571.165 282.426C574.493 281.593 577.543 281.176 579.554 278.26C579.692 278.052 579.623 277.705 579.415 277.566C579.207 277.427 578.86 277.497 578.722 277.705C576.85 280.343 573.938 280.69 570.888 281.454C566.659 282.495 562.222 283.814 557.786 283.05C550.229 281.731 543.505 273.679 544.752 265.904C544.822 265.626 544.614 265.348 544.337 265.348C544.129 265.279 543.851 265.487 543.782 265.765Z" fill="white"/>
<path d="M540.454 311.929C539.553 309.429 538.999 305.611 539.761 302.487C540.246 300.474 541.286 298.739 543.158 297.767C544.683 297.003 546.347 296.656 548.011 296.379C549.675 296.101 551.338 296.17 553.002 296.517C554.943 296.934 556.884 297.698 558.41 298.878C562.43 302.071 563.956 308.388 563.54 313.317C563.54 313.595 563.748 313.803 564.025 313.872C564.302 313.872 564.51 313.664 564.579 313.386C565.065 308.18 563.401 301.516 559.103 298.114C557.439 296.795 555.359 295.962 553.28 295.546C551.546 295.198 549.675 295.129 547.941 295.407C546.139 295.684 544.406 296.101 542.811 296.934C540.662 298.045 539.484 300.058 538.929 302.349C538.167 305.681 538.721 309.707 539.692 312.345C539.761 312.623 540.038 312.762 540.316 312.623C540.385 312.484 540.524 312.206 540.454 311.929Z" fill="white"/>
<path d="M577.058 303.321C574.077 303.598 569.917 302.418 567.214 300.058C565.481 298.531 564.302 296.518 564.579 294.157C564.649 293.741 564.857 293.394 565.134 293.047C565.689 292.422 566.382 291.936 566.867 291.519C570.333 288.743 573.73 287.84 577.82 289.853C578.098 289.992 578.375 289.853 578.514 289.645C578.652 289.367 578.514 289.09 578.306 288.951C573.869 286.729 570.125 287.701 566.313 290.756C565.827 291.172 564.995 291.728 564.441 292.422C564.025 292.908 563.678 293.463 563.609 294.088C563.332 296.865 564.579 299.156 566.59 300.891C569.501 303.39 573.938 304.709 577.127 304.431C577.405 304.431 577.613 304.154 577.613 303.876C577.543 303.46 577.335 303.321 577.058 303.321Z" fill="white"/>
<path d="M511.892 300.267C517.577 299.989 520.766 296.657 522.222 292.075C524.44 285.48 523.123 276.247 521.598 270.694C521.529 270.416 521.251 270.277 520.974 270.347C520.697 270.416 520.558 270.694 520.627 270.972C522.153 276.386 523.4 285.341 521.251 291.728C519.865 295.893 517.022 298.948 511.823 299.225C511.546 299.225 511.338 299.503 511.338 299.781C511.338 300.058 511.615 300.267 511.892 300.267Z" fill="white"/>
<path d="M368.182 355.967C367.943 356.207 367.704 356.447 367.524 356.626C366.148 357.645 364.772 358.603 363.396 359.562C359.866 362.018 356.636 364.834 352.986 367.05C352.448 367.35 351.91 367.889 351.371 368.189C350.893 368.428 350.414 368.608 349.876 368.488C349.636 368.428 349.457 368.308 349.397 368.189C349.277 368.009 349.217 367.769 349.277 367.47C349.337 367.23 349.517 366.93 349.696 366.631C349.935 366.271 350.234 365.912 350.294 365.612C351.072 363.755 351.85 361.838 352.807 360.041C355.021 355.728 357.533 351.594 359.747 347.281C359.866 347.041 360.166 346.921 360.405 347.041C360.644 347.161 360.764 347.46 360.644 347.7C358.431 352.013 355.918 356.147 353.704 360.46C352.807 362.258 352.029 364.115 351.251 365.972C351.072 366.331 350.713 366.871 350.414 367.35C350.414 367.41 350.354 367.41 350.354 367.47C350.593 367.41 350.893 367.29 351.132 367.11C351.61 366.811 352.029 366.451 352.448 366.152C356.097 363.935 359.328 361.119 362.798 358.663C364.174 357.705 365.55 356.746 366.926 355.728C367.225 355.488 367.763 354.949 368.122 354.589C368.362 354.35 368.601 354.23 368.78 354.23C369.02 354.17 369.199 354.29 369.319 354.41C369.379 354.53 369.498 354.649 369.439 354.949C368.84 358.543 367.464 362.018 366.088 365.373C365.789 366.032 365.49 366.751 365.191 367.41C368.601 365.553 371.832 362.497 374.763 360.101C375.84 359.202 376.917 358.244 377.934 357.225C378.173 356.986 378.592 356.387 378.891 356.027C379.13 355.788 379.31 355.608 379.43 355.548C379.669 355.488 379.848 355.548 379.968 355.668C380.028 355.728 380.207 355.907 380.147 356.207C380.088 358.723 378.652 362.018 377.814 364.295C377.216 365.912 376.677 367.53 375.96 369.087C375.84 369.327 375.541 369.447 375.302 369.327C375.062 369.207 374.943 368.907 375.062 368.668C375.78 367.17 376.319 365.553 376.917 363.995C377.575 362.138 378.652 359.622 379.071 357.465C378.891 357.645 378.771 357.884 378.652 357.944C377.635 358.963 376.558 359.921 375.421 360.88C372.071 363.636 368.362 367.17 364.473 368.907C364.234 369.027 364.054 368.967 363.994 368.907C363.815 368.847 363.755 368.728 363.695 368.488C363.695 368.428 363.695 368.308 363.755 368.129C363.815 367.949 364.054 367.649 364.114 367.47C364.473 366.631 364.832 365.792 365.191 364.954C366.328 362.198 367.524 359.083 368.182 355.967Z" fill="white"/>
<path d="M343.355 262.332C341.5 264.189 340.184 266.346 338.868 268.622C330.612 283.539 339.825 299.534 352.508 308.101C352.747 308.281 353.046 308.221 353.226 307.981C353.405 307.742 353.345 307.442 353.106 307.263C340.842 298.995 331.808 283.539 339.825 269.101C341.021 266.885 342.338 264.788 344.132 262.991C344.312 262.811 344.312 262.452 344.132 262.272C343.893 262.152 343.534 262.152 343.355 262.332Z" fill="#3D248A"/>
<path d="M352.209 307.143L350.713 299.954C350.653 299.655 350.833 299.415 351.132 299.355C351.431 299.295 351.67 299.475 351.73 299.775L353.346 307.563C353.405 307.682 353.346 307.862 353.226 307.982C353.106 308.102 352.987 308.162 352.867 308.162H344.432C344.132 308.162 343.953 307.922 343.953 307.682C343.953 307.383 344.192 307.203 344.432 307.203H352.209V307.143Z" fill="#3D248A"/>
<path d="M423.463 196.242C423.796 186.296 432.448 178.198 441.327 177.028C446.481 176.389 451.313 177.759 456.301 179.695C456.538 179.76 456.827 179.655 456.943 179.398C456.983 179.147 456.861 178.826 456.612 178.679C451.549 176.749 446.48 175.315 441.176 175.965C431.921 177.164 422.864 185.622 422.526 196.065C422.497 196.398 422.758 196.626 422.995 196.691C423.157 196.761 423.435 196.575 423.463 196.242Z" fill="#3D248A"/>
<path d="M422.587 195.551L429.201 191.01C429.401 190.834 429.72 190.971 429.903 191.2C430.085 191.429 429.983 191.76 429.784 191.937L422.685 196.756C422.549 196.847 422.401 196.858 422.315 196.784C422.155 196.715 422.07 196.641 421.973 196.486L418.255 187.792C418.146 187.557 418.248 187.226 418.459 187.129C418.67 187.033 418.989 187.17 419.098 187.405L422.587 195.551Z" fill="#3D248A"/>
<path d="M558.643 316.763C554.224 344.425 546.07 374.498 527.419 398.744C505.492 427.331 466.331 434.191 448.318 412.203C448.186 412.011 447.838 412.015 447.623 412.212C447.408 412.408 447.377 412.718 447.51 412.91C465.85 435.32 505.758 428.373 528.104 399.278C546.858 374.875 555.104 344.53 559.625 316.712C559.656 316.402 559.523 316.21 559.236 316.252C558.95 316.295 558.622 316.531 558.643 316.763Z" fill="#3D248A"/>
<path d="M448.819 409.121L450.045 422.371C450.066 422.604 449.859 422.919 449.631 423C449.342 423.043 449.156 422.928 449.073 422.656L447.734 408.784C447.723 408.667 447.765 408.471 447.868 408.314C447.972 408.156 448.085 408.116 448.261 408.114L458.707 408.134C458.945 408.17 459.142 408.401 459.1 408.597C459.069 408.91 458.852 409.107 458.5 409.112L448.819 409.121Z" fill="#3D248A"/>
</svg>
